<svg width="800" height="400" viewBox="0 0 800 400" fill="none" xmlns="http://www.w3.org/2000/svg">
<path d="M48.478 399.534C48.478 399.534 -48.6464 304.345 32.0526 201.286C103.655 109.847 187.135 116.098 248.384 153.205C274.47 169.009 349.68 155.152 413.694 62.1095C500.992 -64.7772 803.589 12.1805 748.418 207.396C721.718 301.869 829.678 305.301 774.667 399.735L48.478 399.534" fill="#F4F4FF"/>
<path d="M544.475 222.727C544.475 222.727 551.424 218.862 553.415 218.803C555.406 218.743 562.058 219.724 561.498 221.21C560.943 222.694 554.734 224.021 553.99 225.055C553.247 226.091 558.321 226.254 557.069 226.989C555.817 227.726 546.063 228.076 545.148 227.88C544.228 227.685 544.475 222.727 544.475 222.727Z" fill="#FFB27D"/>
<path d="M362.838 181.864C362.838 181.864 358.89 175.025 357.215 173.968C355.537 172.908 349.319 170.375 349.025 171.933C348.728 173.491 353.366 177.774 353.465 179.038C353.561 180.306 349.121 177.871 349.815 179.136C350.505 180.404 358.692 185.649 359.581 185.945C360.47 186.244 362.838 181.864 362.838 181.864" fill="#FFB27D"/>
<path d="M485.735 134.941C487.532 130.121 485.998 124.923 480.252 124.312C475.079 123.76 470.473 122.032 468.677 126.848C466.88 131.665 468.759 138.683 473.645 140.456C478.524 142.225 483.939 139.757 485.735 134.941" fill="#C8D9E8"/>
<path d="M466.498 162.172C466.498 162.172 491.922 152.132 479.107 133.85C479.107 133.85 474.455 130.621 471.651 130.153C471.651 130.153 463.266 124.032 455.417 128.333C447.572 132.637 443.487 136.323 446.106 143.65C448.724 150.98 466.498 162.172 466.498 162.172Z" fill="#C8D9E8"/>
<path d="M450.908 156.341C450.908 156.341 450.196 158.966 449.357 162.559C448.943 164.314 448.498 166.301 448.09 168.324C447.796 169.775 447.522 171.248 447.294 172.668L442.387 194.342L469.249 193.856L468.009 177.384C468.009 177.384 465.739 173.538 466.698 157.502C466.712 157.33 466.712 157.238 466.712 157.238L450.908 156.341Z" fill="#FFB27D"/>
<path d="M449.357 162.558C448.944 164.313 447.953 169.166 447.543 171.189C464.358 170.867 466.537 159.151 466.697 157.499C466.714 157.332 466.714 157.237 466.714 157.237C466.714 157.237 456.904 159.863 449.357 162.558Z" fill="#E8945B"/>
<path d="M445.481 163.364C445.481 163.364 462.26 170.061 466.327 159.688C470.393 149.316 475.298 143.194 464.759 138.479C454.212 133.763 450.568 136.925 448.357 140.059C446.147 143.197 441.218 161.355 445.481 163.364Z" fill="#FFB27D"/>
<path d="M455.044 133.182C455.044 133.182 449.617 150.993 471.013 156.633C471.013 156.633 479.57 132.342 455.044 133.182Z" fill="#C8D9E8"/>
<path d="M458.361 136.35C458.361 136.35 449.911 143.144 446.438 144.45C446.438 144.45 443.398 131.159 458.361 136.35Z" fill="#C8D9E8"/>
<path d="M453.602 379.07C454.078 385.419 454.425 389.829 454.425 389.829H442.389C442.389 389.829 441.086 385.615 439.176 379.238C435.913 368.318 430.86 351.066 427.514 337.783C422.211 316.746 425.188 256.695 425.188 256.695C425.188 256.695 446.392 258.209 456.998 259.426C467.601 260.643 452.402 330.927 451.289 333.708C450.495 335.683 452.428 363.337 453.602 379.07" fill="#FFB27D"/>
<path d="M519.593 349.165C519.494 349.367 519.435 349.473 519.435 349.473C519.435 349.473 519.096 349.432 518.467 349.349H518.463C516.369 349.077 511.095 348.366 504.543 347.296C490.108 344.936 469.475 340.84 463.004 335.876C452.71 327.974 438.617 257.219 438.617 257.219C438.617 257.219 445.864 247.099 468.363 250.893C490.863 254.684 475.099 320.333 482.088 320.585C486.696 320.748 501.246 327.717 511.426 332.885C516.7 335.556 520.797 337.745 521.75 338.257C524.249 339.602 520.429 347.51 519.593 349.165" fill="#FFB27D"/>
<path d="M425.19 256.694C425.19 256.694 415.324 305.044 416.912 325.438C418.504 345.835 424.36 353.231 424.36 353.231C424.36 353.231 443.92 362.723 485.98 332.735C485.98 332.735 500.324 323.086 508.228 320.592C509.529 320.181 509.974 318.593 509.087 317.569C503.902 311.601 491.201 296.179 491.014 288.224C490.777 278.231 479.268 242.258 468.191 243.108C457.118 243.955 425.19 256.694 425.19 256.694" fill="#2B478B"/>
<path d="M454.426 389.829H442.389C442.389 389.829 441.089 385.615 439.176 379.238C442.617 380.07 448.126 380.817 453.6 379.069C454.078 385.419 454.426 389.829 454.426 389.829" fill="#739AF0"/>
<path d="M454.456 388.712C454.456 388.712 447.65 390.235 441.778 388.712C441.778 388.712 436.258 393.351 432.92 394.772C429.585 396.194 425.898 395.421 425.545 399.532H456.04C456.04 399.532 456.677 393.528 454.456 388.712" fill="#2B478B"/>
<path d="M519.593 349.165C519.221 349.227 518.846 349.284 518.467 349.349H518.463C516.369 349.076 511.094 348.366 504.543 347.296C511.834 341.619 511.426 332.885 511.426 332.885C516.7 335.556 520.796 337.745 521.75 338.257C524.249 339.602 520.428 347.51 519.593 349.165" fill="#739AF0"/>
<path d="M521.752 338.257C521.752 338.257 519.49 344.773 515.095 348.898C515.095 348.898 516.194 355.971 515.669 359.516C515.139 363.064 512.538 365.754 515.9 368.208L531.917 342.611C531.917 342.611 527.072 338.92 521.752 338.257Z" fill="#2B478B"/>
<path d="M548.91 224.651C548.703 223.736 547.142 221.316 547.142 221.316C547.142 221.316 513.299 221.18 507.814 220.958C502.325 220.736 493.871 190.774 488.451 186.184C483.035 181.594 468.01 177.383 468.01 177.383L467.88 180.564L443.665 181.705L446.81 174.79C446.81 174.79 439.952 173.023 429.96 175.342C419.964 177.657 400.183 196.936 392.082 194.341C383.985 191.746 362.393 180.275 362.393 180.275C362.393 180.275 360.291 180.983 359.275 182.117C358.404 183.086 357.859 186.213 357.859 186.213C357.859 186.213 363.41 194.258 370.767 201.935C376.727 208.158 383.87 214.143 390.199 215.414C399.205 217.223 412.638 214.152 421.533 211.558C421.813 211.475 422.089 211.395 422.361 211.312C419.987 222.812 418.752 238.171 420.624 258.202C420.624 258.202 423.067 270.676 445.867 267.537C457.899 265.881 467.086 263.912 473.292 261.913C478.835 260.133 482.007 258.323 482.717 256.694C483.292 255.361 482.122 243.645 480.473 229.769C486.97 236.865 495.398 243.115 504.933 243.106C522.589 243.094 548.154 228.925 548.154 228.925C548.154 228.925 549.539 227.355 548.91 224.651" fill="#F99746"/>
<path d="M446.814 174.79C446.814 174.79 446.867 178.223 450.636 178.862C454.409 179.501 468.011 177.383 468.011 177.383V183.976L432.434 184.901L446.814 174.79Z" fill="#F99746"/>
<path d="M482.714 256.694C482.008 258.323 478.835 260.133 473.292 261.913C463.826 244.856 480.331 229.687 480.331 229.687C482.433 246.66 483.397 255.122 482.714 256.694Z" fill="#ED7D2B"/>
<path d="M421.531 211.559C412.636 214.153 399.202 217.224 390.201 215.415C383.868 214.144 376.727 208.159 370.766 201.936L370.76 201.924C370.76 201.924 388.608 211.579 399.919 210.596C411.227 209.616 421.531 211.559 421.531 211.559" fill="#ED7D2B"/>
<path d="M446.043 156.633C446.043 156.633 446.218 158.408 447.544 159.107C448.868 159.803 451.695 158.494 451.695 158.494C451.695 158.494 449.045 156.515 446.043 156.633" fill="white"/>
<path d="M268.63 177.143C268.63 177.143 260.089 180.874 255.639 173.926C251.187 166.981 240.115 166.732 241.529 158.487C242.943 150.244 238.229 138.623 244.825 135.602C251.424 132.581 258.212 126.071 264.124 125.606C270.038 125.141 271.719 130.952 278.889 130.487C286.061 130.022 287.959 134.784 288.895 137.983C289.829 141.179 295.251 144.413 293.837 151.862C292.423 159.31 293.588 165.029 290.541 168.856C287.496 172.682 268.63 177.143 268.63 177.143" fill="#C8D9E8"/>
<path d="M250.488 340.457L278.454 395.148L288.58 394.645C288.58 394.645 280.339 326.294 270.189 322.216C260.038 318.141 250.488 340.457 250.488 340.457" fill="#FFB27D"/>
<path d="M275.926 334.564L303.508 390.406L314.358 389.45C314.358 389.45 305.777 320.401 295.627 316.322C285.476 312.244 275.926 334.564 275.926 334.564Z" fill="#FFB27D"/>
<path d="M311.899 355.227C308.936 357.416 305.099 359.021 300.812 360.191C281.756 365.38 253.85 361.85 254.643 361.85C255.61 361.85 241.085 333.595 240.433 319.278C239.779 304.958 268.949 270.25 268.949 270.25L327.318 258.113L328.618 257.84C346.914 284.419 318.9 310.861 308.389 319.154C308.38 319.16 308.374 319.168 308.365 319.171C308.362 319.174 308.359 319.177 308.359 319.177C306.597 320.569 305.327 321.443 304.865 321.719C304.865 321.719 304.862 321.719 304.859 321.724C301.652 323.679 311.899 355.227 311.899 355.227" fill="#C65447"/>
<path d="M287.806 388.712C287.806 388.712 281 390.234 275.127 388.712C275.127 388.712 269.609 393.35 266.271 394.772C262.935 396.193 259.248 395.42 258.897 399.531H289.394C289.394 399.531 290.027 393.528 287.806 388.712" fill="#1F3C75"/>
<path d="M314.358 388.303C314.358 388.303 308.54 390.234 302.67 388.712C302.67 388.712 296.459 393.35 293.123 394.772C289.788 396.193 286.101 395.42 285.75 399.531H316.243C316.243 399.531 316.58 393.119 314.358 388.303" fill="#2B478B"/>
<path d="M311.899 355.227C308.935 357.416 305.098 359.021 300.811 360.191C297.196 355.438 297.707 348.33 294.05 339.595C289.631 329.049 304.45 321.914 304.858 321.725C301.652 323.679 311.899 355.227 311.899 355.227" fill="#B2443B"/>
<path d="M308.389 319.154C308.671 318.905 311.103 316.642 316.907 307.517C323.091 297.788 313.043 269.228 313.043 269.228L327.318 258.113L328.618 257.84C346.914 284.419 318.9 310.861 308.389 319.154Z" fill="#B2443B"/>
<path d="M228.934 225.336C228.934 225.336 223.786 222.187 223.764 220.123C223.742 218.059 222.355 211.78 220.79 209.923C219.224 208.063 213.903 205.045 213.82 206.348C213.737 207.651 217.021 211.247 216.382 213.27C215.743 215.296 215.841 218.728 215.094 218.053C214.345 217.378 209.548 212.977 209.517 214.662C209.487 216.347 213.665 220.052 214.073 222.066C214.481 224.08 219.503 225.348 221.18 227.062C222.857 228.774 229.391 234.366 229.391 234.366L228.934 225.336" fill="#FFB27D"/>
<path d="M280.618 243.094L265.484 184.372C265.499 184.289 256.414 190.432 256.213 196.169C256.056 200.662 259.569 222.406 261.779 232.447C248.001 227.042 228.066 221.367 228.066 221.367C221.843 221.867 222.897 231.108 222.897 231.108C222.897 231.108 257.056 259.09 269.714 257.843C274.373 257.384 274.169 246.648 274.532 241.006L280.618 243.094" fill="#4A82D3"/>
<path d="M261.269 167.227C261.269 167.227 261.86 169.884 262.788 173.453C263.242 175.2 263.773 177.166 264.355 179.145C264.773 180.569 265.217 182 265.673 183.365L274.596 203.407L286.266 178.147C286.266 178.147 282.456 175.763 275.824 161.09C275.758 160.933 275.716 160.847 275.716 160.847L261.269 167.227" fill="#FFB27D"/>
<path d="M327.763 266.113C327.763 266.113 322.695 267.339 313.043 269.228C311.395 269.554 309.617 269.895 307.705 270.253C306.999 270.383 306.279 270.52 305.537 270.656C303.391 271.053 301.097 271.464 298.656 271.894C276.103 275.842 266.664 273.742 266.664 273.742C266.664 273.742 266.01 273.392 265.898 271.029C265.337 258.853 272.137 255.45 271.071 244.762C269.582 229.758 268.15 226.636 262.788 214.721C258.114 204.319 250.188 193.64 259.732 187.251C259.93 187.121 260.128 186.991 260.332 186.863C261.896 185.862 263.836 184.39 265.712 183.445C266.667 185.074 269.003 187.692 274.095 186.517C277.211 185.803 279.478 184.642 281.21 183.365C281.297 183.297 281.387 183.232 281.474 183.164C283.411 181.677 284.66 180.06 285.704 178.801C285.893 178.576 286.074 178.363 286.254 178.162C286.257 178.156 286.263 178.153 286.266 178.147C286.275 178.147 286.281 178.141 286.287 178.147C286.395 178.138 286.65 178.159 286.986 178.191C288.319 178.333 290.943 178.724 290.943 178.724C291.691 180.063 290.592 180.537 291.18 181.979C293.225 187.023 314.856 200.416 315.183 200.831C316.712 202.753 318.546 204.485 319.342 206.665C327.979 230.347 327.763 266.113 327.763 266.113" fill="#739AF0"/>
<path d="M262.789 173.452C263.242 175.2 264.626 179.956 265.208 181.938C279.982 174.021 276.452 162.627 275.824 161.09C275.758 160.933 275.716 160.847 275.716 160.847C275.716 160.847 268.235 167.633 262.789 173.452Z" fill="#E8945B"/>
<path d="M259.723 175.931C259.723 175.931 277.746 174.258 276.515 163.202C275.287 152.146 276.785 144.484 265.226 145.085C253.668 145.687 251.905 150.147 251.404 153.935C250.906 157.723 255.004 176.08 259.723 175.931Z" fill="#FFB27D"/>
<path d="M256.91 169.371C256.91 169.371 257.913 170.855 259.414 170.858C260.915 170.861 262.789 168.4 262.789 168.4C262.789 168.4 259.507 167.876 256.91 169.371Z" fill="white"/>
<path d="M333.164 264.516C333.164 264.516 322.695 267.339 313.043 269.228C298.019 243.562 315.009 223.348 321.449 213.27C321.629 213.483 333.164 264.516 333.164 264.516" fill="#4A82D3"/>
<path d="M336.856 253.534C336.856 253.534 335.232 255.966 332.335 257.334C329.438 258.702 324.427 263.571 325.484 263.971C326.541 264.371 330.807 261.092 330.029 262.541C329.252 263.989 321.191 267.057 324.01 268.458C326.829 269.859 332.986 269.113 334.938 267.404C336.889 265.692 341.666 257.512 341.666 257.512L336.856 253.534" fill="#FFB27D"/>
<path d="M341.804 258.933C341.804 258.933 338.631 259.783 335.812 257.239C334.359 255.927 333.671 253.504 333.671 253.504C333.671 253.504 337.031 233.936 339.934 219.628C331.516 217.144 320.663 213.015 311.232 208.303C311.052 208.214 310.872 208.122 310.695 208.036C301.808 203.546 294.264 198.559 291.364 193.974C287.479 187.84 283.744 184.68 281.474 183.164C283.411 181.677 284.659 180.06 285.704 178.801C285.893 178.576 286.074 178.363 286.254 178.162C286.263 178.156 286.278 178.15 286.287 178.147C286.518 178.034 286.752 177.925 286.986 177.815C292.73 175.144 300.544 172.336 306.39 173.396C316.817 175.286 359.722 208.552 359.052 212.769C359.052 212.769 360.166 236.131 341.804 258.933" fill="#739AF0"/>
<path d="M258.065 146.252C258.065 146.252 260.113 151.592 263.968 151.862C267.825 152.131 269.161 151.829 272.596 154.746C276.031 157.664 276.484 159.627 278.781 158.232C281.077 156.84 275.424 137.488 265.174 139.579C254.925 141.673 243.967 152.655 245.558 157.187C247.149 161.721 253.439 165.853 253.439 165.853C253.439 165.853 251.742 159.281 253.865 156.491C255.985 153.701 255.195 146.471 258.065 146.252Z" fill="#C8D9E8"/>
<path d="M590.585 236.276C590.585 236.276 580.923 235.461 576.916 237.321C572.909 239.181 567.611 239.993 569.14 241.621C570.673 243.247 580.212 243.517 583.985 244.775C587.753 246.037 594.21 243.105 594.21 243.105L590.585 236.276" fill="#FFB27D"/>
<path d="M597.145 360.022L578.451 197.369C578.451 197.369 575.883 185.78 565.514 186.843C554.452 187.978 555.05 199.768 555.05 199.768C555.05 199.768 555.314 200.766 556.449 200.65C557.642 200.529 557.729 199.495 557.729 199.495C557.729 199.495 557.267 190.404 565.799 189.529C573.79 188.709 575.768 197.644 575.768 197.644L592.923 360.455L597.145 360.022" fill="#233862"/>
<path d="M591.502 360.6L598.383 359.895L597.023 352.858C597.023 352.858 596.977 351.866 595.584 351.952C594.285 352.034 591.717 352.114 591.552 352.908C591.411 353.607 591.502 360.6 591.502 360.6Z" fill="#233862"/>
<path d="M586.277 240.595C586.277 240.595 581.063 244.481 578.413 245.419C575.763 246.358 582.133 246.95 584.51 246.009C586.892 245.067 591.263 245.959 594.206 243.106C597.145 240.257 586.277 240.595 586.277 240.595" fill="#FFB27D"/>
<path d="M781.671 175.466C781.671 175.466 791.764 168.46 793.134 167.109C794.505 165.758 799.68 157.502 799.981 159.453C800.287 161.405 796.332 171.162 795.112 172.964C793.897 174.765 800.169 172.213 799.997 173.714C799.83 175.216 793.591 178.669 791.764 178.968C789.937 179.269 785.068 181.07 785.068 181.07L781.671 175.466" fill="#FFB27D"/>
<path d="M647.169 384.661C647.169 384.661 644.65 400.438 641.625 399.991C641.222 399.932 626.53 396.647 626.53 396.647L607.576 392.412C607.576 392.412 608.946 387.919 614.64 388.2C620.339 388.485 630.388 386.734 635.35 380.328C640.574 373.587 647.169 384.661 647.169 384.661Z" fill="#163560"/>
<path d="M686.975 308.295C684.665 312.433 683.132 315.43 682.998 316.707C680.337 341.84 648.265 388.191 648.265 388.191C638.838 391.046 627.783 384.601 627.783 384.601C636.869 364.544 652.524 303.181 662.184 263.47C667.229 242.756 670.642 227.932 670.642 227.932C670.642 227.932 694.829 230.127 699.914 231.013C730.556 236.352 698.722 287.208 686.975 308.295" fill="#2B478B"/>
<path d="M686.975 308.295L662.184 263.47C667.229 242.756 670.642 227.932 670.642 227.932C670.642 227.932 694.829 230.127 699.914 231.013C730.556 236.352 698.722 287.208 686.975 308.295" fill="#233862"/>
<path d="M726.278 383.33C726.278 383.33 727.352 399.265 724.302 399.487C723.898 399.516 708.832 399.516 708.832 399.516H689.397C689.397 399.516 689.722 394.837 695.348 393.872C700.97 392.903 710.374 389.005 713.784 381.678C717.365 373.966 726.278 383.33 726.278 383.33Z" fill="#163560"/>
<path d="M727.175 389.074C717.285 391.653 706.033 390.625 706.033 390.625C697.55 319.34 684.807 268.784 678.029 245.161C677.32 242.7 676.681 240.526 676.116 238.657C674.412 233.027 673.401 230.116 673.401 230.116C673.401 230.116 694.35 219.685 713.222 221.533C717.097 221.912 719.768 225.078 721.606 229.962C722.156 231.419 722.627 233.027 723.038 234.763V234.769C727.953 255.518 723.682 294.104 727.175 301.881C731.942 312.49 727.175 389.074 727.175 389.074" fill="#2B478B"/>
<path d="M678.654 143.255L669.07 167.236L657.537 150.008C657.496 149.241 657.394 148.48 657.237 147.733C656.718 145.263 655.635 142.935 654.474 140.983C652.484 137.634 650.258 135.382 650.258 135.382L665.067 126.003C666.488 129.003 668.214 131.704 669.949 134.026C669.954 134.032 669.959 134.041 669.963 134.047C674.276 139.808 678.654 143.255 678.654 143.255" fill="#FFB27D"/>
<path d="M669.973 134.024C669.973 134.024 669.968 134.033 669.959 134.048C669.689 134.623 664.236 146.008 657.233 147.734C656.716 145.264 655.636 142.936 654.474 140.984C657.548 137.777 663.207 134.563 669.945 134.027C669.955 134.024 669.964 134.024 669.973 134.024" fill="#E8945B"/>
<path d="M785.655 175.61C783.814 173.642 780.372 172.703 780.372 172.703L742.583 177.126C741.57 177.238 740.562 176.895 739.835 176.193C734.292 170.826 710.31 147.693 705.277 144.462C696.36 138.735 679.126 142.992 679.126 142.992C679.126 142.992 679.131 142.995 679.131 142.996C679.126 142.995 679.126 142.993 679.126 142.991C679.126 142.991 678.972 143.009 678.585 143.082C676.839 145.599 672.612 150.662 665.705 152.817C661.037 154.274 658.56 151.585 657.531 149.929C657.531 149.929 646.408 154.089 640.854 166.575C636.42 176.546 628.67 199.24 623.97 213.326L588.717 234.464C588.717 234.464 588.489 240.236 593.973 245.313C593.973 245.313 594.058 245.292 594.233 245.247C597.511 244.409 630.76 235.818 635.109 230.371C639.385 228.005 649.293 213.779 656.98 202.036V202.039C659.69 206.668 661.844 210.504 662.48 212.023C664.708 217.324 663.515 228.866 665.053 241.572C665.35 244.039 665.992 244.377 665.992 244.377C665.992 244.377 674.999 246.145 695.782 240.995C697.246 240.63 698.667 240.272 700.046 239.922C705.42 238.551 710.04 237.295 713.748 236.253C714.787 235.963 715.753 235.687 716.649 235.433C721.46 234.043 731.942 230.084 718.384 199.296C717.965 198.334 717.307 196.077 716.522 193.153C716.517 193.148 716.517 193.144 716.517 193.139C719.535 194.312 722.776 195.328 726.261 196.131C730.568 197.12 738.875 199.412 741.994 199.095C754.481 197.816 788.938 181.436 788.938 181.436C788.938 181.436 787.602 177.691 785.655 175.61" fill="#C65447"/>
<path d="M716.618 235.539C715.726 235.794 714.76 236.07 713.725 236.363C701.759 223.399 716.484 193.247 716.484 193.247L716.494 193.26C717.282 196.185 717.936 198.441 718.357 199.404C731.913 230.191 721.434 234.15 716.618 235.539" fill="#B2443B"/>
<path d="M650.643 143.14C650.643 143.14 670.809 142.947 670.492 130.562C670.175 118.176 672.567 109.81 659.681 109.409C646.791 109.009 644.413 113.797 643.5 117.956C642.582 122.116 645.391 142.871 650.643 143.14" fill="#FFB27D"/>
<path d="M656.951 202.142C649.265 213.886 639.358 228.111 635.084 230.48C630.733 235.924 597.486 244.516 594.205 245.354C599.162 238.379 627.524 231.004 634.522 223.781C642.118 215.935 656.951 202.142 656.951 202.142Z" fill="#B2443B"/>
<path d="M656.995 202.077C656.986 202.097 656.973 202.118 656.955 202.142C656.973 202.109 656.986 202.088 656.995 202.077Z" fill="#B2443B"/>
<path d="M643.332 120.754C643.332 120.754 633.28 109.597 641.942 101.752C650.604 93.9072 664.054 99.1372 670.491 101.055C676.932 102.972 675.547 121.766 670.491 130.563C670.491 130.563 667.213 124.938 668.094 121.974C668.981 119.011 666.742 114.13 664.678 116.396C662.618 118.662 646.836 105.763 643.332 120.754Z" fill="#C8D9E8"/>
<path d="M650.731 132.075C650.731 132.075 654.552 130.913 656.555 133.121C658.553 135.329 659.618 135.852 659.618 135.852C659.618 135.852 653.961 136.608 651.015 134.458C651.015 134.458 648.187 137.23 645.539 137.18C645.539 137.18 647.366 132.291 650.731 132.075Z" fill="#C8D9E8"/>
<path d="M68.3772 383.331C68.3772 383.331 69.4502 399.265 66.3999 399.487C65.9943 399.516 50.9293 399.516 50.9293 399.516H31.4966C31.4966 399.516 31.8238 394.837 37.4452 393.871C43.0667 392.903 52.4757 389.005 55.8809 381.678C59.4632 373.966 68.3772 383.331 68.3772 383.331" fill="#163560"/>
<path d="M112.365 264.489C112.365 264.489 79.7041 316.891 79.6315 326.206C79.5591 335.52 106.243 393.889 106.243 393.889C106.243 393.889 121.393 392.489 124.704 386.029C124.704 386.029 110.122 326.442 112.713 325.616C115.304 324.787 152.971 291.163 156.229 279.301C159.487 267.439 141.028 241.883 112.365 264.489Z" fill="#233862"/>
<path d="M125.971 260.565L49.394 387.187C49.394 387.187 58.3474 392.66 69.6575 389.077C69.6575 389.077 114.543 345.424 115.25 337.164C115.957 328.901 187.931 273.466 155.188 252.894C122.444 232.322 125.971 260.565 125.971 260.565Z" fill="#2B478B"/>
<path d="M47.5677 203.807C47.5677 203.807 42.7911 198.852 41.7923 196.877C40.7937 194.901 35.9634 190.367 35.139 190.95C34.3142 191.531 37.7305 196.062 37.2595 196.181C36.7881 196.296 28.4235 187.811 27.1278 188.391C25.8317 188.975 25.596 197.922 29.7193 202.457C33.8429 206.988 43.3856 210.358 43.3856 210.358L47.5677 203.807" fill="#FFB27D"/>
<path d="M185.08 230.107C185.08 230.107 185.023 236.946 184.349 239.051C183.675 241.154 183.954 247.726 184.957 247.874C185.959 248.022 186.696 242.419 187.117 242.659C187.538 242.899 187.574 254.734 188.915 255.205C190.257 255.675 196.731 249.403 196.96 243.316C197.188 237.23 192.702 228.265 192.702 228.265L185.08 230.107Z" fill="#FFB27D"/>
<path d="M124.423 167.55C124.423 167.55 169.216 174.418 183.009 195.775C196.803 217.132 195.342 235.109 195.342 235.109C195.342 235.109 186.856 237.621 184.29 236.824C184.29 236.824 168.432 205.747 166.434 206.449C164.436 207.151 138.577 205.806 134.875 202.459C131.174 199.113 124.423 167.55 124.423 167.55" fill="#ED7D2B"/>
<path d="M123.041 383.331C123.041 383.331 124.114 399.265 121.064 399.487C120.658 399.516 105.593 399.516 105.593 399.516H86.1606C86.1606 399.516 86.4879 394.837 92.1093 393.871C97.7307 392.903 107.139 389.005 110.545 381.678C114.127 373.966 123.041 383.331 123.041 383.331" fill="#163560"/>
<path d="M96.4126 160.16C96.4126 160.16 101.465 163.107 102.527 170.698L117.946 190.29L124.99 165.367C124.99 165.367 116.19 159.55 110.342 149.552L96.4126 160.16" fill="#FFB27D"/>
<path d="M96.0478 167.476C96.0478 167.476 115.274 162.962 112.379 151.619C109.484 140.272 112.462 131.352 97.9713 134.346C86.055 136.807 83.556 142.701 83.5887 146.72C83.6211 150.739 88.8345 168.847 96.0478 167.476" fill="#FFB27D"/>
<path d="M86.8345 158.463C86.8345 158.463 87.3055 173.971 94.1672 174.249C101.029 174.528 117.216 168.225 112.098 150.487C112.098 150.487 104.839 158.081 100.626 159.121C96.4123 160.16 93.0326 158.54 89.7085 161.478C89.7085 161.478 88.2702 161.78 86.8345 158.463" fill="#2B478B"/>
<path d="M106.813 135.646C106.163 134.589 104.555 134.388 104.555 134.388C92.5342 132.791 86.168 140.009 86.168 140.009C90.2234 129.489 106.572 126.877 112.161 133.775C121.285 145.035 112.098 150.488 112.098 150.488C112.098 150.488 100.972 149.152 105.24 142.372C106.654 140.127 107.138 138.348 107.062 136.938C107.037 136.467 106.95 136.037 106.813 135.646" fill="#2B478B"/>
<path d="M96.4365 163.208C96.4365 163.208 96.4413 164.538 93.2262 165.092C93.2262 165.092 90.5268 165.557 90.2734 164.156C90.2734 164.156 92.6143 162.565 96.4365 163.208" fill="white"/>
<path d="M170.502 248.709C167.851 279.852 160.645 271.82 130.918 270.25C102.866 268.769 113.964 251.419 112.628 235.645C112.55 234.704 112.426 233.771 112.246 232.847C111.327 228.09 109.875 222.611 108.503 216.913C105.128 202.904 102.244 187.598 108.98 178.606C118.456 165.956 123.379 164.111 123.379 164.111C148.208 170.959 173.153 217.567 170.502 248.709" fill="#F99746"/>
<path d="M140.344 200.739C140.21 201.287 130.625 228.931 112.628 236.312C112.55 235.37 112.426 234.437 112.246 233.513C111.327 228.756 109.875 223.277 108.503 217.579C109.352 216.889 110.228 216.32 111.115 215.906C120.435 211.543 140.108 201.118 140.344 200.739Z" fill="#ED7D2B"/>
<path d="M147.942 195.366C147.942 195.366 113.082 229.627 86.8345 229.627C64.5325 229.627 41.2945 210.794 41.2945 210.794C41.2945 210.794 40.4109 204.432 47.4998 201.29C47.4998 201.29 83.0624 207.382 85.2085 208.383C89.4494 210.358 118.059 176.011 123.143 173.654C138.756 166.424 147.942 195.366 147.942 195.366Z" fill="#F99746"/>
</svg>
