<svg id="Capa_1" enable-background="new 0 0 497 497" height="512" viewBox="0 0 497 497" width="512" xmlns="http://www.w3.org/2000/svg"><g><path d="m54.619 112.716h190.82l12.73 109.314-130.296 32.752z" fill="#e7886e"/><path d="m370.665 335.676s32.502 30.642 32.502 100.783l-46.252 25.3-72.872-25.3-25.875-100.783 34.674-40.433h77.823z" fill="#ff6f7f"/><path d="m403.167 436.459h-60.024v60.541h83.726c10.173 0 18.42-8.247 18.42-18.42 0-23.263-18.859-42.121-42.122-42.121z" fill="#4f4c5f"/><path d="m344.068 436.459h-60.024l-10.108 60.541h93.834c10.173 0 18.42-8.247 18.42-18.42-.001-23.263-18.859-42.121-42.122-42.121z" fill="#5c586f"/><path d="m278.43 335.676-112.795-128.708c-3.014-58.702-51.564-105.371-111.016-105.371-20.555 0-37.218 16.663-37.218 37.218v267.171c0 50.265 40.748 91.014 91.014 91.014h165.521c28.69 0 51.948-23.258 51.948-51.948-.001-43.154-18.255-82.04-47.454-109.376z" fill="#ed9b83"/><circle cx="429.926" cy="49.673" fill="#a19dae" r="49.673"/><path d="m410.344 29.709c24.262 0 47.467 4.824 68.836 13.601-3.126-24.426-23.977-43.31-49.254-43.31-21.092 0-39.101 13.152-46.306 31.698 8.736-1.301 17.654-1.989 26.724-1.989z" fill="#938ea3"/><path d="m429.926 49.673c-41.844-41.844-105.053-49.299-154.522-22.364l39.715 137.171 137.172 39.715c26.934-49.469 19.48-112.678-22.365-154.522z" fill="#b2b0bc"/><path d="m370.665 335.676h-37.39c-22.329 0-40.433-18.104-40.433-40.433 0-8.689 2.751-16.732 7.416-23.323l70.407-26.754 21.517 56.851z" fill="#f2b6a7"/><path d="m258.169 245.166-21.961 48.447 21.961 42.064h27.282c22.329 0 40.433-18.104 40.433-40.433 0-8.689-2.751-16.732-7.416-23.323z" fill="#ffcabd"/><g><path d="m258.169 222.03v113.646c-30.921 0-59.335-14.151-77.974-38.815-18.639-24.674-24.482-55.878-16.042-85.616 6.105-21.49 28.465-33.953 49.944-27.848z" fill="#ffb3dd"/></g><path d="m370.665 268.358v67.318h33.659c18.589 0 33.659-15.07 33.659-33.659 0-33.702-37.668-53.704-65.588-34.828z" fill="#ffb3dd"/><path d="m218.434 234.767c0-15.007 1.523-29.633 4.387-43.724l-8.724-7.647c-21.48-6.105-43.839 6.358-49.944 27.848-8.44 29.738-2.598 60.942 16.042 85.616 15.462 20.459 37.652 33.675 62.417 37.589-15.395-29.51-24.178-63.497-24.178-99.682z" fill="#ff9dd3"/><path d="m404.451 29.815c-39.519-23.57-88.825-24.406-129.047-2.506l13.976 48.271c31.591-27.441 71.503-44.361 115.071-45.765z" fill="#a19dae"/><path d="m452.276 204.195s-74.533-37.755-67.581-109.291c-71.535 6.952-109.291-67.581-109.291-67.581v-.014c-10.714 5.839-20.791 13.293-29.861 22.364-50.915 50.915-50.915 133.469 0 184.384 50.914 50.915 133.469 50.915 184.383 0 9.07-9.07 16.525-19.147 22.364-29.861h-.014z" fill="#ffdcce"/><path d="m84.24 378.511c-7.589-5.047-9.651-15.29-4.604-22.88 4.561-6.859 13.371-9.199 20.626-5.86l96.42 44.256c12.459 5.719 17.923 20.455 12.205 32.914-5.719 12.459-20.455 17.923-32.914 12.205-3.251-1.493.48.554-91.733-60.635z" fill="#e7886e"/><circle cx="184.632" cy="415.641" fill="#fff" r="34.51"/><path d="m303.759 64.229c-18.729-17.915-28.354-36.905-28.354-36.905v-.014c-10.714 5.839-20.791 13.293-29.861 22.364-40.753 40.752-48.88 101.773-24.395 150.618 8.973-56.629 39.665-105.359 82.61-136.063z" fill="#ffcabd"/><g><g><path d="m262.728 101.083c.284-4.132 3.854-7.252 7.997-6.968 4.132.284 7.252 3.864 6.968 7.996-.509 7.396 5.606 13.554 13.044 13.044 4.123-.283 7.712 2.836 7.996 6.969.284 4.132-2.836 7.712-6.969 7.996-16.498 1.133-30.167-12.556-29.036-29.037z" fill="#423e4f"/></g><g><path d="m349.48 187.834c.284-4.132 3.854-7.252 7.997-6.968 4.132.284 7.252 3.864 6.968 7.996-.51 7.412 5.622 13.552 13.044 13.044 4.124-.284 7.712 2.836 7.996 6.969.284 4.132-2.836 7.712-6.969 7.996-16.498 1.133-30.168-12.556-29.036-29.037z" fill="#423e4f"/></g><g><ellipse cx="309.746" cy="169.853" fill="#423e4f" rx="12.268" ry="11.503" transform="matrix(.707 -.707 .707 .707 -29.38 268.778)"/></g></g></g></svg>