<svg width="72" height="72" viewBox="0 0 72 72" fill="none" xmlns="http://www.w3.org/2000/svg">
<path d="M15.3706 30.6516C15.3706 26.6644 11.9298 23.4321 7.68524 23.4321C3.44068 23.4321 0 26.6644 0 30.6516C0 36.1087 4.82688 39.4599 9.07143 39.4599C13.316 39.4599 15.3706 34.6387 15.3706 30.6516Z" fill="#A36D3C"/>
<path d="M6.9322 42.5457C9.51453 42.5457 11.6079 40.5792 11.6079 38.1534C11.6079 35.7276 9.51453 33.7611 6.9322 33.7611C4.34986 33.7611 2.25647 35.7276 2.25647 38.1534C2.25647 40.5792 4.34986 42.5457 6.9322 42.5457Z" fill="url(#paint0_linear)"/>
<path d="M56.6292 30.6516C56.6292 26.6644 60.07 23.4321 64.3146 23.4321C68.5592 23.4321 72 26.6644 72 30.6516C72 36.1087 67.1731 39.4599 62.9286 39.4599C58.684 39.4599 56.6292 34.6387 56.6292 30.6516Z" fill="#A36D3C"/>
<path d="M65.0676 42.5457C67.65 42.5457 69.7434 40.5792 69.7434 38.1534C69.7434 35.7276 67.65 33.7611 65.0676 33.7611C62.4853 33.7611 60.3919 35.7276 60.3919 38.1534C60.3919 40.5792 62.4853 42.5457 65.0676 42.5457Z" fill="url(#paint1_linear)"/>
<path d="M21.8762 49.4028C12.3698 50.9059 6.36421 59.3689 4.91618 67.9825C4.5615 70.0917 6.29749 72 8.57062 72H13.3894L28.9491 49.4028H21.8762Z" fill="url(#paint2_linear)"/>
<path d="M50.1236 49.4028C59.63 50.9059 65.6356 59.3689 67.0836 67.9825C67.4383 70.0917 65.7023 72 63.4292 72H58.6104L43.0509 49.4028H50.1236Z" fill="url(#paint3_linear)"/>
<path d="M58.6104 72C58.6104 57.6059 48.4873 45.9371 35.9999 45.9371C23.5125 45.9371 13.3894 57.6059 13.3894 72H58.6104Z" fill="url(#paint4_linear)"/>
<path d="M17.8103 56.5184C23.1525 59.6289 29.4332 61.3017 35.9999 61.3017C38.9004 61.3017 41.7449 60.9747 44.4776 60.3422C45.9322 60.0054 46.7551 58.5577 46.245 57.2344C45.8065 56.0972 44.526 55.4505 43.2761 55.7412C40.9572 56.2806 38.5178 56.5688 35.9999 56.5688C30.3942 56.5688 25.1778 55.1417 20.8151 52.6895C19.7077 53.8471 18.7009 55.1302 17.8103 56.5184Z" fill="#E05D6F"/>
<path d="M35.9999 56.5685C35.46 57.9161 32.7428 60.6752 30.9648 62.2621C30.1649 62.9761 28.9324 63.0602 28.0402 62.4507C24.1706 59.8073 20.867 54.1179 24.7639 49.3782L35.9999 56.5685Z" fill="url(#paint5_linear)"/>
<path d="M25.1487 59.7064C27.4177 60.397 29.7795 60.8697 32.2004 61.1117C33.8028 59.5624 35.5752 57.6288 35.9999 56.5685C31.3109 56.5685 26.8943 55.5702 23.0218 53.8088C22.9525 55.9252 23.8341 57.995 25.1487 59.7064Z" fill="#F2E07E"/>
<path d="M35.9999 56.5685C36.5398 57.9161 39.2571 60.6752 41.0351 62.2621C41.835 62.9761 43.0674 63.0602 43.9597 62.4507C47.8293 59.8073 51.1328 54.1179 47.2358 49.3782L35.9999 56.5685Z" fill="url(#paint6_linear)"/>
<path d="M44.4776 60.342C45.9322 60.0053 46.7552 58.5575 46.245 57.2343C45.8065 56.097 44.526 55.4503 43.2761 55.7411C40.9572 56.2805 38.5178 56.5686 35.9999 56.5686C36.4244 57.6283 38.195 59.5603 39.7968 61.1092C41.3853 60.9503 42.9494 60.6957 44.4776 60.342Z" fill="#F2E07E"/>
<path d="M35.9999 56.5685C51.3229 56.5685 63.7446 45.915 63.7446 32.7732C63.7446 19.6314 51.3229 8.97791 35.9999 8.97791C20.6769 8.97791 8.25519 19.6314 8.25519 32.7732C8.25519 45.915 20.6769 56.5685 35.9999 56.5685Z" fill="#B38861"/>
<path d="M62.3589 10.846C61.87 10.6688 61.5233 10.2617 61.4422 9.77551C60.8353 6.14194 57.4884 3.36249 53.4499 3.36249C51.9291 3.36249 50.5077 3.7582 49.2932 4.44464C48.6979 4.78112 47.938 4.64472 47.4759 4.15707C45.1146 1.66432 40.8598 0 35.9999 0C31.1401 0 26.8853 1.66432 24.5239 4.15707C24.062 4.64457 23.302 4.78112 22.7067 4.44464C21.4921 3.7582 20.0709 3.36249 18.5501 3.36249C14.5116 3.36249 11.1646 6.14194 10.5578 9.77551C10.4766 10.2617 10.1298 10.6688 9.64094 10.846C6.25721 12.0731 3.84422 15.2692 3.84422 19.0193C3.84422 23.8298 7.81426 27.7296 12.7117 27.7296C17.406 27.7296 21.0973 25.208 22.3638 21.7192C22.6087 21.0448 23.3734 20.6738 24.106 20.8588C27.9182 21.822 32.2098 21.0834 35.0738 18.8649C35.6136 18.4468 36.3865 18.4468 36.9264 18.8649C39.789 21.0821 44.0802 21.8226 47.8941 20.8588C48.6267 20.6736 49.3915 21.0448 49.6362 21.7192C50.9029 25.208 54.594 27.7296 59.2883 27.7296C64.1857 27.7296 68.1558 23.8298 68.1558 19.0193C68.1556 15.2692 65.7428 12.0731 62.3589 10.846Z" fill="url(#paint7_linear)"/>
<path d="M35.9999 69.4368C37.3752 69.4368 38.49 68.3896 38.49 67.0977C38.49 65.8058 37.3752 64.7586 35.9999 64.7586C34.6247 64.7586 33.5098 65.8058 33.5098 67.0977C33.5098 68.3896 34.6247 69.4368 35.9999 69.4368Z" fill="url(#paint8_linear)"/>
<defs>
<linearGradient id="paint0_linear" x1="6.9322" y1="41.2348" x2="6.9322" y2="32.8707" gradientUnits="userSpaceOnUse">
<stop stop-color="#F9EDAF"/>
<stop offset="1" stop-color="#FFFCDD"/>
</linearGradient>
<linearGradient id="paint1_linear" x1="65.0676" y1="41.2348" x2="65.0676" y2="32.8707" gradientUnits="userSpaceOnUse">
<stop stop-color="#F9EDAF"/>
<stop offset="1" stop-color="#FFFCDD"/>
</linearGradient>
<linearGradient id="paint2_linear" x1="21.4675" y1="60.7013" x2="8.17762" y2="60.7013" gradientUnits="userSpaceOnUse">
<stop stop-color="#EC6F80"/>
<stop offset="1" stop-color="#ECA0AA"/>
</linearGradient>
<linearGradient id="paint3_linear" x1="50.5323" y1="60.7013" x2="63.8222" y2="60.7013" gradientUnits="userSpaceOnUse">
<stop stop-color="#EC6F80"/>
<stop offset="1" stop-color="#ECA0AA"/>
</linearGradient>
<linearGradient id="paint4_linear" x1="35.9999" y1="41.9541" x2="35.9999" y2="67.9023" gradientUnits="userSpaceOnUse">
<stop stop-color="#EC6F80"/>
<stop offset="1" stop-color="#ECA0AA"/>
</linearGradient>
<linearGradient id="paint5_linear" x1="29.5087" y1="55.9558" x2="29.5087" y2="59.9272" gradientUnits="userSpaceOnUse">
<stop stop-color="#F9EDAF"/>
<stop offset="1" stop-color="#FFFCDD"/>
</linearGradient>
<linearGradient id="paint6_linear" x1="42.4914" y1="55.9558" x2="42.4914" y2="59.9272" gradientUnits="userSpaceOnUse">
<stop stop-color="#F9EDAF"/>
<stop offset="1" stop-color="#FFFCDD"/>
</linearGradient>
<linearGradient id="paint7_linear" x1="35.9999" y1="36.5744" x2="35.9999" y2="6.7069" gradientUnits="userSpaceOnUse">
<stop stop-color="#D4DBDB"/>
<stop offset="1" stop-color="#F3F3F3"/>
</linearGradient>
<linearGradient id="paint8_linear" x1="35.9999" y1="69.4889" x2="35.9999" y2="64.9668" gradientUnits="userSpaceOnUse">
<stop stop-color="#F9EDAF"/>
<stop offset="1" stop-color="#FFFCDD"/>
</linearGradient>
</defs>
</svg>
