<svg width="266" height="239" viewBox="0 0 266 239" fill="none" xmlns="http://www.w3.org/2000/svg">
<path d="M266 211.383C265.518 203.617 265.45 195.797 264.981 188.027C264.168 174.588 261.932 160.763 254.614 149.45C247.295 138.138 233.844 129.915 220.543 132.182C220.023 122.435 219.293 112.535 215.867 103.391C212.442 94.2487 205.919 85.8173 196.804 82.273C190.177 79.6965 183.025 79.9145 175.831 80.1325C171.6 80.2601 167.356 80.3891 163.196 79.9491C160.494 79.6632 157.68 79.0676 155.636 77.2822C153.671 75.5658 152.704 73.004 151.877 70.5325C147.437 57.2685 145.558 43.5937 141.167 30.3656C138.69 22.902 136.467 14.8043 130.793 9.10489C128.299 6.59886 124.992 5.06864 121.661 3.87346C106.275 -1.64379 84.2091 -2.30587 70.9631 8.81505C64.402 7.50154 57.7517 11.2706 53.3079 16.264C44.2725 26.4158 42.1872 41.4546 43.6142 54.3942C44.1739 59.4687 44.7895 65.0352 41.958 69.2881C38.8334 73.9798 32.668 75.381 27.9937 78.5385C19.2461 84.4479 16.404 96.207 17.2168 106.714C18.0296 117.222 21.7338 127.303 23.1236 137.751C12.24 141.357 7.44715 154.331 5.56171 164.447C2.85014 178.982 1.03666 193.683 0.135914 208.44C0.0759531 209.414 0.0253168 210.398 0 211.383H266" fill="#D1DAEA"/>
<path d="M246.926 211.27H168.937C172.338 210.897 175.733 210.583 177.745 210.583C178.806 210.583 179.483 210.669 179.575 210.881C176.212 203.203 172.849 195.525 169.486 187.849C168.881 186.468 168.27 185.072 167.989 183.59C167.657 181.844 167.795 180.047 167.967 178.278C168.601 171.745 169.687 165.256 171.215 158.872C172.222 154.662 173.5 150.433 173.855 146.099C174.172 142.225 174.826 140.374 176.171 136.688C178.618 129.975 178.39 122.271 175.332 115.79C174.685 114.419 173.911 113.086 172.838 112.012C171.677 110.847 170.205 110.027 168.667 109.436C165.756 108.318 162.642 108.001 159.504 108.001C157.747 108.001 155.982 108.1 154.239 108.215C147.544 108.657 140.862 109.278 134.201 110.079C133.85 110.121 133.488 110.161 133.132 110.161C132.65 110.161 132.179 110.088 131.769 109.845C131.197 109.508 130.847 108.905 130.522 108.326C127.209 102.441 123.614 96.9342 120.016 91.2734C123.321 87.8646 126.212 84.0504 128.459 80.1644C132.805 80.082 137.318 78.7512 141.025 76.3289C150.598 86.4594 161.97 94.359 177.09 94.4654C177.177 94.4654 177.264 94.4654 177.352 94.4654C178.815 94.4654 180.294 94.383 181.774 94.3006C183.251 94.2181 184.729 94.1344 186.191 94.1344C188.674 94.1344 191.113 94.3737 193.431 95.2578C199.871 97.7119 203.537 104.414 206.07 110.81C210.636 122.336 213.33 134.599 214.017 146.974C222.327 147.105 231.433 147.533 237.596 153.097C242.918 157.902 244.716 165.411 245.777 172.493C247.697 185.313 248.069 198.359 246.926 211.27V211.27ZM96.6983 211.27H13.8736C12.9395 208.489 12.9315 205.471 12.9688 202.526C13.1314 190.01 13.6884 177.498 14.6357 165.016C15.0168 160.002 15.5178 154.807 18.0442 150.456C20.1988 146.746 24.2561 143.831 28.4308 143.831C29.1516 143.831 29.8765 143.919 30.596 144.103C29.6686 133.426 28.7425 122.748 27.8151 112.071C27.5513 109.034 27.2995 105.893 28.2802 103.005C30.2602 97.1762 36.5828 94.0732 42.5242 92.4193C44.1618 91.9647 45.926 91.5047 47.0333 90.2178C48.2938 88.7501 48.3458 86.6269 48.2552 84.6952C47.8328 75.732 45.7421 66.8206 46.431 57.8734C46.9014 51.7512 49.0746 45.3712 53.076 40.8856C52.8482 42.0502 52.6763 43.2081 52.5617 44.3488C51.1866 58.0116 53.617 72.5041 61.0588 84.2166C68.0196 95.174 80.4062 104.362 93.7775 104.362C94.4118 104.362 95.0487 104.342 95.6883 104.299C95.6949 104.313 95.7016 104.326 95.7083 104.339C95.7123 104.346 95.7163 104.354 95.7203 104.361C95.7283 104.377 95.7362 104.391 95.7442 104.407C95.7496 104.415 95.7536 104.424 95.7589 104.432C95.7655 104.447 95.7736 104.46 95.7802 104.474C95.7856 104.484 95.7909 104.494 95.7962 104.503C95.8015 104.515 95.8082 104.528 95.8149 104.54C95.8202 104.551 95.8268 104.561 95.8322 104.572C95.8348 104.577 95.8375 104.583 95.8402 104.587C95.8588 104.621 95.8775 104.656 95.8948 104.689C95.8961 104.692 95.8988 104.696 95.9001 104.697C95.9095 104.716 95.9188 104.733 95.9281 104.751C95.9308 104.754 95.9321 104.758 95.9334 104.761C95.9441 104.779 95.9534 104.798 95.9641 104.817C95.9654 104.819 95.9654 104.819 95.9668 104.822C97.3245 107.331 98.8582 109.685 100.375 112.065C101.666 114.09 102.944 116.134 104.092 118.313C98.2253 118.727 92.3571 119.14 86.4889 119.554C81.6548 119.894 76.113 120.63 73.4774 124.687C72.2209 126.62 71.8811 128.985 71.572 131.267C68.4567 154.219 65.3467 177.61 69.3468 200.426C69.7265 202.59 70.2102 204.836 71.588 206.549C73.9944 209.545 78.2943 210.037 82.1331 210.298C86.9859 210.629 91.8414 210.96 96.6983 211.27" fill="#C4CFE4"/>
<path d="M179.575 210.881C176.212 203.203 172.849 195.525 169.486 187.849C168.881 186.468 168.271 185.072 167.989 183.59C167.658 181.844 167.795 180.047 167.967 178.278C168.601 171.745 169.687 165.256 171.215 158.872C172.223 154.662 173.5 150.433 173.855 146.099C174.172 142.225 174.826 140.374 176.171 136.688C178.618 129.975 178.391 122.271 175.333 115.79C174.685 114.419 173.911 113.086 172.838 112.012C171.678 110.847 170.205 110.027 168.668 109.436C164.125 107.692 159.095 107.894 154.24 108.215C147.544 108.657 140.862 109.278 134.201 110.079C133.376 110.178 132.483 110.266 131.769 109.845C131.197 109.508 130.847 108.905 130.522 108.326C126.839 101.784 122.809 95.711 118.812 89.3709C110.635 93.4616 102.692 98.0177 95.0342 103.01C97.6738 108.425 101.273 112.966 104.092 118.313C98.2255 118.727 92.3573 119.14 86.4891 119.554C81.6549 119.894 76.1132 120.63 73.4776 124.687C72.2211 126.62 71.8813 128.985 71.5722 131.267C68.4569 154.219 65.3469 177.61 69.3469 200.426C69.7267 202.59 70.2104 204.836 71.5882 206.549C73.9946 209.545 78.2944 210.037 82.1333 210.298C99.0529 211.452 115.985 212.602 132.947 212.871C141.405 213.005 149.87 212.921 158.321 212.505C160.124 212.416 179.055 209.699 179.575 210.881" fill="#D16368"/>
<path d="M179.575 210.881C176.212 203.203 172.849 195.525 169.486 187.849C168.881 186.468 168.271 185.072 167.989 183.59C167.658 181.844 167.795 180.047 167.967 178.278C168.469 173.103 169.266 167.956 170.332 162.867C164.056 160.026 157.78 157.187 151.504 154.345C150.761 154.009 149.978 153.641 149.521 152.964C149.166 152.435 149.055 151.782 148.956 151.152C146.771 137.13 146.45 122.827 147.952 108.714C145.242 108.939 142.535 109.196 139.83 109.479C140.39 124.518 140.948 139.557 141.508 154.595C126.88 156.539 111.986 156.474 97.3754 154.401C96.3494 154.255 95.2275 154.046 94.5746 153.246C94.1189 152.688 93.9816 151.944 93.859 151.236C92.0295 140.631 90.1987 130.026 88.3679 119.421C87.7417 119.464 87.1154 119.508 86.4892 119.554C85.3686 119.632 84.212 119.738 83.0608 119.895C83.0901 120.314 83.13 120.775 83.1833 121.306C83.5378 124.887 83.8855 128.47 84.2373 132.052C84.8782 138.597 86.1934 145.435 86.1934 152.008C86.2787 152.866 86.3586 153.758 86.0601 154.566C85.6671 155.631 84.6983 156.357 83.7776 157.022C79.4871 160.119 75.1965 163.216 70.906 166.313C70.0385 166.939 68.8833 167.616 67.6747 168.35C67.1751 179.097 67.4882 189.823 69.347 200.426C69.7268 202.59 70.2104 204.836 71.5882 206.549C73.9946 209.545 78.2945 210.037 82.1333 210.298C99.053 211.452 115.985 212.602 132.947 212.871C141.405 213.005 149.871 212.921 158.321 212.505C160.124 212.416 179.056 209.699 179.575 210.881Z" fill="#FBC34B"/>
<path d="M73.7961 103.865C68.7421 102.291 63.6174 101.117 58.4635 100.667C58.2183 106.356 56.5154 117.916 56.2849 119.474C55.1816 126.947 53.9904 134.215 53.3775 141.841C52.8525 148.39 52.1676 154.778 51.6732 161.162C51.063 169.019 50.7405 176.868 51.3507 184.994C52.1449 195.567 54.7912 207.786 64.2677 212.134C74.1866 216.685 82.5425 204.962 84.0242 194.824C86.2494 179.6 83.206 164.465 81.3978 149.567C79.5231 134.122 77.3285 118.923 73.7961 103.865" fill="#C45A62"/>
<path d="M209.436 168.555C203.141 153.819 193.881 140.082 185.703 126.239C179.759 116.175 170.744 104.294 157.367 108.56C144.22 112.753 149.872 125.503 153.835 134.776C162.65 155.398 172.126 175.742 182.243 195.762C165.241 195.458 148.352 198.16 131.845 202.028C123.541 203.974 115.245 206.116 107.075 208.559C106.623 208.695 106.214 208.841 105.825 208.994C106.574 215.075 107.813 221.036 109.606 226.938C126.746 229.034 144.462 229.025 161.263 228.483C173.274 228.096 185.126 226.903 196.808 224.796C201.965 222.854 206.951 220.453 211.53 217.39C227.588 206.65 215.187 182.021 209.436 168.555" fill="#D16368"/>
<path d="M100.375 112.065C98.8584 109.685 97.3248 107.33 95.967 104.822C97.3248 107.33 98.8584 109.684 100.375 112.065ZM95.9643 104.816C95.9537 104.798 95.9443 104.779 95.9337 104.761C95.9443 104.779 95.9537 104.798 95.9643 104.816ZM95.9283 104.751C95.919 104.733 95.9097 104.715 95.9004 104.697C95.9097 104.715 95.919 104.733 95.9283 104.751ZM95.895 104.689C95.8777 104.656 95.8591 104.621 95.8404 104.586C95.8591 104.621 95.8764 104.656 95.895 104.689ZM95.8324 104.572C95.8271 104.561 95.8204 104.551 95.8151 104.54C95.8204 104.551 95.8271 104.561 95.8324 104.572ZM95.7964 104.503C95.7911 104.493 95.7858 104.484 95.7805 104.474C95.7858 104.484 95.7911 104.493 95.7964 104.503ZM95.7591 104.432C95.7538 104.424 95.7498 104.415 95.7445 104.407C95.7498 104.415 95.7538 104.424 95.7591 104.432ZM95.7205 104.36C95.7165 104.354 95.7125 104.346 95.7085 104.339C95.7125 104.346 95.7165 104.354 95.7205 104.36Z" fill="#BCB7CB"/>
<path d="M100.375 112.065C98.8584 109.684 97.3248 107.33 95.967 104.822C95.9656 104.82 95.9656 104.819 95.9643 104.816C95.9536 104.798 95.9443 104.779 95.9337 104.761C95.9323 104.758 95.931 104.754 95.9283 104.751C95.919 104.733 95.9097 104.715 95.9004 104.697C95.899 104.694 95.8963 104.692 95.895 104.689C95.8764 104.656 95.8591 104.621 95.8404 104.586C95.8377 104.583 95.8351 104.577 95.8324 104.572C95.8271 104.561 95.8204 104.551 95.8151 104.54C95.8084 104.528 95.8017 104.515 95.7964 104.503C95.7911 104.493 95.7858 104.484 95.7804 104.474C95.7724 104.46 95.7658 104.447 95.7591 104.432C95.7538 104.424 95.7498 104.415 95.7445 104.407C95.7365 104.391 95.7285 104.376 95.7205 104.36C95.7165 104.354 95.7125 104.346 95.7085 104.339C95.7018 104.326 95.6951 104.313 95.6885 104.299C96.3107 104.258 96.9343 104.197 97.5593 104.115C105.481 103.067 113.542 97.9485 120.017 91.2733C122.411 95.045 124.8 98.7502 127.111 102.54C124.682 104.225 122.035 105.645 119.358 106.829C113.334 109.494 106.913 111.242 100.375 112.065" fill="#CA585D"/>
<path d="M57.831 85.0803C65.4447 97.064 79.5475 106.933 94.3312 104.978C109.447 102.979 125.077 86.1598 129.199 71.9745C133.463 57.3052 128.548 40.917 119.259 29.1898C116.208 25.3357 112.609 21.8911 108.517 19.1511C96.7536 11.2714 85.6236 12.1967 72.2589 14.9354C59.0995 17.6329 50.6184 32.4417 49.3339 45.2124C47.9588 58.8753 50.3892 73.3677 57.831 85.0803Z" fill="#D16368"/>
<path d="M57.8558 113.495C58.7645 106.139 57.4401 98.5228 54.1009 91.9021C53.3841 90.4809 51.857 87.9191 53.0536 86.3569C53.1615 86.216 53.2974 86.0844 53.4693 86.0418C53.6159 86.006 53.7705 86.0365 53.9144 86.0844C54.8618 86.3995 55.4427 87.3261 55.9451 88.1876C57.2202 90.3706 58.4954 92.5549 59.7706 94.7392C60.2143 92.3435 59.0617 89.8468 58.526 87.5495C57.9238 84.9703 57.6026 82.3274 57.5707 79.6804C57.5587 78.6846 57.9891 77.3233 58.9738 77.4841C60.8552 77.7912 61.8146 82.6398 62.2063 83.9985C63.1284 87.1932 63.8652 90.4397 64.4155 93.7168C65.0125 90.4051 64.4595 87.0097 64.3089 83.6475C64.209 81.402 63.9132 78.101 65.163 76.0868C67.8919 71.689 69.0885 82.6464 69.1804 84.2138C69.3883 87.7529 69.2924 91.3344 70.0185 94.8057C70.5489 89.9133 71.1178 84.8905 73.391 80.5233C73.8107 79.7189 74.3744 78.8747 75.2578 78.6634C78.4837 77.8896 76.441 85.1883 76.2185 86.3742C75.5283 90.0475 74.6182 93.6796 73.4923 97.2425C74.2225 94.807 76.1626 92.7636 78.561 91.9048C78.8115 91.8144 79.0833 91.7359 79.3431 91.8011C80.6863 92.1348 78.5436 96.413 78.2705 97.3462C77.0086 101.675 76.2132 105.387 76.2505 109.939C76.2918 114.9 76.8021 119.859 77.7735 124.725" fill="#C45A62"/>
<path d="M131.433 59.4767C132.78 57 135.164 55.0443 137.929 54.4713C140.694 53.897 143.785 54.825 145.58 57C148.627 60.6959 148.722 68.2698 145.696 72.1066C141.448 77.4909 134.071 80.3745 127.313 80.1578L131.433 59.4767" fill="#D16368"/>
<path d="M133.345 77.592C132.976 77.592 132.642 77.4857 132.463 77.1719L133.108 76.0605C133.078 75.5939 133.064 75.1259 133.07 74.6579C133.32 72.9243 133.865 70.0394 135.424 67.0535C137.368 63.1847 140.161 60.7677 141.087 59.8757C141.432 59.7587 141.781 59.6909 142.128 59.6909C142.503 59.6909 142.877 59.7707 143.232 59.9555C144.29 60.5045 144.739 61.7675 144.983 62.9321C145.617 65.966 145.431 69.3202 143.692 71.886C141.612 74.9558 137.821 76.2919 134.286 77.4232C133.994 77.5163 133.657 77.592 133.345 77.592V77.592ZM137.215 64.231C137.211 64.231 137.208 64.2323 137.206 64.2337C137.092 64.2789 137.239 64.7987 137.283 65.6269C137.338 66.4565 137.206 67.5985 136.807 68.8203C135.984 71.2532 134.882 73.137 135.104 73.258C135.108 73.2607 135.112 73.262 135.118 73.262C135.316 73.262 136.675 71.5895 137.541 69.0516C137.969 67.7487 138.029 66.4472 137.823 65.5565C137.635 64.6936 137.311 64.231 137.215 64.231" fill="#CA585D"/>
<path d="M132.55 48.6562C131.377 43.9686 129.524 39.4271 127.143 35.2366C129.531 38.438 131.359 42.0249 132.172 45.9149C132.359 46.8149 132.486 47.7323 132.55 48.6562Z" fill="#C7C0D1"/>
<path d="M119.206 66.1958C118.533 66.1958 117.861 66.1293 117.197 65.9884C111.818 64.8544 108.492 59.6043 105.863 54.7877C103.234 49.9711 100.133 44.6559 94.8382 43.1855C93.6883 42.8665 92.5131 42.7561 91.3258 42.7561C89.988 42.7561 88.6329 42.8957 87.2778 43.0353C85.9227 43.1762 84.5663 43.3172 83.2258 43.3172C82.1279 43.3172 81.0405 43.2228 79.9732 42.9582C75.5335 41.8561 72.2623 37.9448 70.5434 33.7145C68.7899 29.4017 68.3448 24.5678 69.2802 20.0078L98.9795 17.9325C108.043 19.714 116.555 24.2022 123.136 30.6713C124.575 32.0872 125.931 33.6121 127.143 35.2367C129.524 39.4271 131.377 43.9686 132.55 48.6563C132.903 53.7468 131.352 59.0154 127.711 62.5517C125.446 64.7533 122.332 66.1958 119.206 66.1958V66.1958ZM92.12 40.6782C93.2273 40.6782 94.5597 40.6995 95.9908 40.8165C99.1767 41.0504 101.811 41.6753 102.626 41.6753C102.78 41.6753 102.869 41.6527 102.886 41.6022C103.002 41.327 100.04 39.9643 96.0801 39.6691C95.4925 39.6213 94.9235 39.6 94.3799 39.6C91.2606 39.6 88.9941 40.2834 89.0553 40.5306C89.0793 40.6622 89.5803 40.6862 90.4118 40.6862C90.6476 40.6862 90.9088 40.6835 91.1939 40.6821C91.4804 40.6795 91.7896 40.6782 92.12 40.6782" fill="#CA585D"/>
<path d="M91 82.8237C96.243 87.9649 97.2965 93.1433 97.168 95.0898" stroke="#C45A62" stroke-linecap="round" stroke-linejoin="bevel"/>
<path d="M70.5796 10.5725C69.5443 15.5899 70.3491 21.9062 72.2945 26.651C73.6869 30.0465 76.3465 33.1241 79.8949 34.088C81.5045 34.5267 83.198 34.5108 84.8663 34.4922C87.2527 34.4656 89.6405 34.4376 92.0283 34.411C94.7265 34.3804 97.6566 34.4244 99.7819 36.0849C102.186 37.9634 102.781 41.2671 103.657 44.1866C104.867 48.2201 106.92 51.9984 109.647 55.2104C112.695 58.8 116.884 61.7833 121.596 61.9827C125.247 62.1369 128.77 60.6093 131.884 58.6989C133.135 57.9318 134.362 57.0823 135.299 55.9523C138.495 52.0955 138.141 46.1462 135.344 42.312C131.524 37.0739 128.808 31.0488 125.389 25.5342C122.795 21.3517 119.857 17.1786 115.646 14.6194C112.207 12.5282 108.175 11.6707 104.215 10.9395C92.969 8.86151 81.162 7.55864 70.2571 10.9979" fill="#D1DAEA"/>
<path d="M47.7464 51.5347C47.0282 44.0525 52.0115 37.1287 57.8824 32.4184C63.7519 27.7068 70.6914 24.411 76.3424 19.4402C77.928 18.0469 79.5243 15.9025 78.5703 14.02C78.1585 13.209 77.3457 12.6746 76.5089 12.3143C73.1445 10.8678 69.2457 11.7453 65.8252 13.0535C60.1663 15.2178 54.5339 19.0586 52.9696 24.9003" fill="#D1DAEA"/>
<path d="M107.493 208.435C102.264 209.336 96.9941 210.249 92.0787 212.027C87.5776 213.654 83.6628 216.066 80.4316 219.211C80.2757 219.364 80.1158 219.524 80.0452 219.718C79.9732 219.912 80.0118 220.151 80.1984 220.276C80.3569 220.381 80.5755 220.383 80.7753 220.373C82.5768 220.288 84.6328 219.714 86.3317 219.197C88.4956 218.537 90.553 217.607 92.4144 216.451C88.8194 219.489 85.7081 222.948 83.1911 226.703C82.405 227.875 81.6574 229.267 82.2144 230.532C83.9253 230.965 85.4376 229.533 86.4477 228.269C88.1439 226.147 89.8401 224.025 91.5363 221.902C89.9241 224.403 88.461 226.975 87.1579 229.606C86.2185 231.501 85.3617 233.673 86.3131 235.564C86.473 235.883 86.7115 236.204 87.0912 236.321C87.9027 236.573 88.5969 235.78 88.97 235.112C90.9034 231.658 92.8368 228.202 94.7716 224.747C93.2699 228.395 90.4917 234.399 92.9794 238.133C93.1793 238.434 93.4338 238.722 93.7895 238.883C94.1453 239.045 94.621 239.051 94.9221 238.822C95.1366 238.661 95.2326 238.418 95.3192 238.185C96.0388 236.262 96.5437 234.285 96.9008 232.289C97.2406 230.399 97.0861 228.728 98.2733 226.99C98.4145 230.738 99.791 234.446 102.203 237.57C102.351 237.76 102.553 237.971 102.818 237.953C103.125 237.931 103.275 237.627 103.345 237.369C104.036 234.827 103.265 232.14 103.764 229.565C103.855 229.1 103.995 228.624 104.337 228.257C105.048 227.494 106.349 227.433 107.485 227.445C110.615 227.478 113.743 227.575 116.868 227.734" fill="#D16368"/>
</svg>
