<svg width="441" height="72" viewBox="0 0 441 72" fill="none" xmlns="http://www.w3.org/2000/svg">
<path d="M15.3706 30.6516C15.3706 26.6644 11.9298 23.4321 7.68524 23.4321C3.44068 23.4321 0 26.6644 0 30.6516C0 36.1087 4.82688 39.4599 9.07144 39.4599C13.316 39.4599 15.3706 34.6387 15.3706 30.6516V30.6516Z" fill="#A36D3C"/>
<path d="M6.9322 42.5457C9.51453 42.5457 11.6079 40.5792 11.6079 38.1534C11.6079 35.7276 9.51453 33.7611 6.9322 33.7611C4.34986 33.7611 2.25647 35.7276 2.25647 38.1534C2.25647 40.5792 4.34986 42.5457 6.9322 42.5457Z" fill="url(#paint0_linear)"/>
<path d="M56.6292 30.6516C56.6292 26.6644 60.07 23.4321 64.3146 23.4321C68.5592 23.4321 72 26.6644 72 30.6516C72 36.1087 67.1731 39.4599 62.9286 39.4599C58.684 39.4599 56.6292 34.6387 56.6292 30.6516V30.6516Z" fill="#A36D3C"/>
<path d="M65.0676 42.5457C67.65 42.5457 69.7434 40.5792 69.7434 38.1534C69.7434 35.7276 67.65 33.7611 65.0676 33.7611C62.4853 33.7611 60.3919 35.7276 60.3919 38.1534C60.3919 40.5792 62.4853 42.5457 65.0676 42.5457Z" fill="url(#paint1_linear)"/>
<path d="M21.8762 49.4028C12.3698 50.9059 6.36421 59.3689 4.91618 67.9825C4.5615 70.0917 6.29749 72 8.57062 72H13.3894L28.9491 49.4028H21.8762Z" fill="url(#paint2_linear)"/>
<path d="M50.1236 49.4028C59.63 50.9059 65.6356 59.3689 67.0836 67.9825C67.4383 70.0917 65.7023 72 63.4292 72H58.6104L43.0509 49.4028H50.1236Z" fill="url(#paint3_linear)"/>
<path d="M58.6104 72C58.6104 57.6059 48.4873 45.9371 35.9999 45.9371C23.5125 45.9371 13.3894 57.6059 13.3894 72H58.6104Z" fill="url(#paint4_linear)"/>
<path d="M17.8103 56.5184C23.1525 59.6289 29.4332 61.3017 35.9999 61.3017C38.9004 61.3017 41.7449 60.9747 44.4776 60.3422C45.9322 60.0054 46.7551 58.5577 46.245 57.2344C45.8065 56.0972 44.526 55.4505 43.2761 55.7412C40.9572 56.2806 38.5178 56.5688 35.9999 56.5688C30.3942 56.5688 25.1778 55.1417 20.8151 52.6895C19.7077 53.8471 18.7009 55.1302 17.8103 56.5184V56.5184Z" fill="#E05D6F"/>
<path d="M35.9999 56.5685C35.46 57.9161 32.7428 60.6752 30.9648 62.2621C30.1649 62.9761 28.9324 63.0602 28.0402 62.4507C24.1706 59.8073 20.867 54.1179 24.7639 49.3782L35.9999 56.5685Z" fill="url(#paint5_linear)"/>
<path d="M25.1487 59.7064C27.4177 60.397 29.7795 60.8697 32.2004 61.1116C33.8028 59.5624 35.5752 57.6288 35.9999 56.5685C31.3109 56.5685 26.8943 55.5702 23.0218 53.8088C22.9525 55.9252 23.8341 57.995 25.1487 59.7064V59.7064Z" fill="#F2E07E"/>
<path d="M35.9999 56.5685C36.5398 57.9161 39.2571 60.6752 41.0351 62.2621C41.835 62.9761 43.0674 63.0602 43.9597 62.4507C47.8293 59.8073 51.1328 54.1179 47.2358 49.3782L35.9999 56.5685Z" fill="url(#paint6_linear)"/>
<path d="M44.4776 60.342C45.9322 60.0053 46.7552 58.5575 46.245 57.2343C45.8065 56.097 44.526 55.4503 43.2761 55.741C40.9572 56.2805 38.5178 56.5686 35.9999 56.5686C36.4244 57.6283 38.195 59.5603 39.7968 61.1092C41.3853 60.9503 42.9494 60.6957 44.4776 60.342Z" fill="#F2E07E"/>
<path d="M35.9999 56.5685C51.3229 56.5685 63.7446 45.915 63.7446 32.7732C63.7446 19.6314 51.3229 8.97791 35.9999 8.97791C20.6769 8.97791 8.25519 19.6314 8.25519 32.7732C8.25519 45.915 20.6769 56.5685 35.9999 56.5685Z" fill="#B38861"/>
<path d="M62.3589 10.846C61.87 10.6688 61.5233 10.2617 61.4422 9.77551C60.8353 6.14194 57.4884 3.36249 53.4499 3.36249C51.9291 3.36249 50.5077 3.7582 49.2932 4.44464C48.6979 4.78112 47.938 4.64472 47.4759 4.15707C45.1146 1.66432 40.8598 0 35.9999 0C31.1401 0 26.8853 1.66432 24.5239 4.15707C24.062 4.64457 23.302 4.78112 22.7067 4.44464C21.4921 3.7582 20.0709 3.36249 18.5501 3.36249C14.5116 3.36249 11.1646 6.14194 10.5578 9.77551C10.4766 10.2617 10.1298 10.6688 9.64094 10.846C6.25721 12.0731 3.84422 15.2692 3.84422 19.0193C3.84422 23.8298 7.81426 27.7296 12.7117 27.7296C17.406 27.7296 21.0973 25.208 22.3638 21.7192C22.6087 21.0448 23.3734 20.6738 24.106 20.8588C27.9182 21.822 32.2098 21.0834 35.0738 18.8649C35.6136 18.4468 36.3865 18.4468 36.9264 18.8649C39.789 21.0821 44.0802 21.8226 47.8941 20.8588C48.6267 20.6736 49.3915 21.0448 49.6362 21.7192C50.9029 25.208 54.594 27.7296 59.2883 27.7296C64.1857 27.7296 68.1558 23.8298 68.1558 19.0193C68.1556 15.2692 65.7428 12.0731 62.3589 10.846Z" fill="url(#paint7_linear)"/>
<path d="M35.9999 69.4368C37.3752 69.4368 38.49 68.3896 38.49 67.0977C38.49 65.8058 37.3752 64.7586 35.9999 64.7586C34.6247 64.7586 33.5098 65.8058 33.5098 67.0977C33.5098 68.3896 34.6247 69.4368 35.9999 69.4368Z" fill="url(#paint8_linear)"/>
<path d="M102.896 63.152C98.72 63.152 94.64 62.696 90.656 61.784C86.72 60.824 83.48 59.552 80.936 57.968L86.408 45.584C88.808 46.976 91.496 48.104 94.472 48.968C97.448 49.784 100.304 50.192 103.04 50.192C105.392 50.192 107.072 49.976 108.08 49.544C109.088 49.064 109.592 48.368 109.592 47.456C109.592 46.4 108.92 45.608 107.576 45.08C106.28 44.552 104.12 43.976 101.096 43.352C97.208 42.536 93.968 41.672 91.376 40.76C88.784 39.8 86.528 38.264 84.608 36.152C82.688 33.992 81.728 31.088 81.728 27.44C81.728 24.272 82.616 21.392 84.392 18.8C86.168 16.208 88.808 14.168 92.312 12.68C95.864 11.192 100.16 10.448 105.2 10.448C108.656 10.448 112.04 10.832 115.352 11.6C118.712 12.32 121.664 13.4 124.208 14.84L119.096 27.152C114.152 24.656 109.472 23.408 105.056 23.408C100.688 23.408 98.504 24.464 98.504 26.576C98.504 27.584 99.152 28.352 100.448 28.88C101.744 29.36 103.88 29.888 106.856 30.464C110.696 31.184 113.936 32.024 116.576 32.984C119.216 33.896 121.496 35.408 123.416 37.52C125.384 39.632 126.368 42.512 126.368 46.16C126.368 49.328 125.48 52.208 123.704 54.8C121.928 57.344 119.264 59.384 115.712 60.92C112.208 62.408 107.936 63.152 102.896 63.152ZM155.544 63.152C147.816 63.152 141.792 61.064 137.472 56.888C133.152 52.712 130.992 46.856 130.992 39.32V11.6H147.984V38.816C147.984 42.512 148.632 45.2 149.928 46.88C151.272 48.56 153.192 49.4 155.688 49.4C158.184 49.4 160.08 48.56 161.376 46.88C162.72 45.2 163.392 42.512 163.392 38.816V11.6H180.096V39.32C180.096 46.856 177.936 52.712 173.616 56.888C169.296 61.064 163.272 63.152 155.544 63.152ZM212.149 11.6C216.805 11.6 220.861 12.368 224.317 13.904C227.773 15.44 230.437 17.648 232.309 20.528C234.181 23.408 235.117 26.768 235.117 30.608C235.117 34.448 234.181 37.808 232.309 40.688C230.437 43.568 227.773 45.776 224.317 47.312C220.861 48.848 216.805 49.616 212.149 49.616H204.877V62H187.885V11.6H212.149ZM211.069 36.512C213.373 36.512 215.101 36.008 216.253 35C217.405 33.944 217.981 32.48 217.981 30.608C217.981 28.736 217.405 27.296 216.253 26.288C215.101 25.232 213.373 24.704 211.069 24.704H204.877V36.512H211.069ZM240.69 11.6H257.682V62H240.69V11.6ZM310.862 62L310.718 39.032L299.774 57.464H292.286L281.342 39.824V62H265.862V11.6H279.83L296.246 38.456L312.23 11.6H326.198L326.342 62H310.862ZM358.821 11.6C363.477 11.6 367.533 12.368 370.989 13.904C374.445 15.44 377.109 17.648 378.981 20.528C380.853 23.408 381.789 26.768 381.789 30.608C381.789 34.448 380.853 37.808 378.981 40.688C377.109 43.568 374.445 45.776 370.989 47.312C367.533 48.848 363.477 49.616 358.821 49.616H351.549V62H334.557V11.6H358.821ZM357.741 36.512C360.045 36.512 361.773 36.008 362.925 35C364.077 33.944 364.653 32.48 364.653 30.608C364.653 28.736 364.077 27.296 362.925 26.288C361.773 25.232 360.045 24.704 357.741 24.704H351.549V36.512H357.741ZM419.175 53.216H400.023L396.639 62H379.359L401.391 11.6H418.095L440.127 62H422.559L419.175 53.216ZM414.495 40.976L409.599 28.304L404.703 40.976H414.495Z" fill="#F3F3F3"/>
<defs>
<linearGradient id="paint0_linear" x1="6.9322" y1="41.2348" x2="6.9322" y2="32.8707" gradientUnits="userSpaceOnUse">
<stop stop-color="#F9EDAF"/>
<stop offset="1" stop-color="#FFFCDD"/>
</linearGradient>
<linearGradient id="paint1_linear" x1="65.0676" y1="41.2348" x2="65.0676" y2="32.8707" gradientUnits="userSpaceOnUse">
<stop stop-color="#F9EDAF"/>
<stop offset="1" stop-color="#FFFCDD"/>
</linearGradient>
<linearGradient id="paint2_linear" x1="21.4675" y1="60.7013" x2="8.17762" y2="60.7013" gradientUnits="userSpaceOnUse">
<stop stop-color="#EC6F80"/>
<stop offset="1" stop-color="#ECA0AA"/>
</linearGradient>
<linearGradient id="paint3_linear" x1="50.5323" y1="60.7013" x2="63.8222" y2="60.7013" gradientUnits="userSpaceOnUse">
<stop stop-color="#EC6F80"/>
<stop offset="1" stop-color="#ECA0AA"/>
</linearGradient>
<linearGradient id="paint4_linear" x1="35.9999" y1="41.9541" x2="35.9999" y2="67.9023" gradientUnits="userSpaceOnUse">
<stop stop-color="#EC6F80"/>
<stop offset="1" stop-color="#ECA0AA"/>
</linearGradient>
<linearGradient id="paint5_linear" x1="29.5087" y1="55.9558" x2="29.5087" y2="59.9272" gradientUnits="userSpaceOnUse">
<stop stop-color="#F9EDAF"/>
<stop offset="1" stop-color="#FFFCDD"/>
</linearGradient>
<linearGradient id="paint6_linear" x1="42.4914" y1="55.9558" x2="42.4914" y2="59.9272" gradientUnits="userSpaceOnUse">
<stop stop-color="#F9EDAF"/>
<stop offset="1" stop-color="#FFFCDD"/>
</linearGradient>
<linearGradient id="paint7_linear" x1="35.9999" y1="36.5744" x2="35.9999" y2="6.7069" gradientUnits="userSpaceOnUse">
<stop stop-color="#D4DBDB"/>
<stop offset="1" stop-color="#F3F3F3"/>
</linearGradient>
<linearGradient id="paint8_linear" x1="35.9999" y1="69.4889" x2="35.9999" y2="64.9668" gradientUnits="userSpaceOnUse">
<stop stop-color="#F9EDAF"/>
<stop offset="1" stop-color="#FFFCDD"/>
</linearGradient>
</defs>
</svg>
