<svg width="601" height="361" viewBox="0 0 601 361" fill="none" xmlns="http://www.w3.org/2000/svg">
<path d="M243.988 81.7327C243.988 71.1005 234.813 62.4815 223.494 62.4815C212.175 62.4815 203 71.1005 203 81.7327C203 96.2842 215.872 105.22 227.191 105.22C238.509 105.22 243.988 92.3645 243.988 81.7327V81.7327Z" fill="#A36D3C"/>
<path d="M221.486 113.444C228.372 113.444 233.954 108.2 233.954 101.732C233.954 95.2631 228.372 90.0193 221.486 90.0193C214.599 90.0193 209.017 95.2631 209.017 101.732C209.017 108.2 214.599 113.444 221.486 113.444Z" fill="url(#paint0_linear)"/>
<path d="M354.011 81.7327C354.011 71.1005 363.187 62.4815 374.506 62.4815C385.824 62.4815 395 71.1005 395 81.7327C395 96.2842 382.128 105.22 370.809 105.22C359.491 105.22 354.011 92.3645 354.011 81.7327V81.7327Z" fill="#A36D3C"/>
<path d="M376.514 113.444C383.4 113.444 388.982 108.2 388.982 101.732C388.982 95.2631 383.4 90.0193 376.514 90.0193C369.627 90.0193 364.045 95.2631 364.045 101.732C364.045 108.2 369.627 113.444 376.514 113.444Z" fill="url(#paint1_linear)"/>
<path d="M261.337 131.736C235.986 135.744 219.971 158.311 216.11 181.28C215.164 186.904 219.793 191.993 225.855 191.993H238.705L280.198 131.736H261.337Z" fill="url(#paint2_linear)"/>
<path d="M336.663 131.736C362.013 135.744 378.028 158.311 381.89 181.28C382.835 186.904 378.206 191.993 372.144 191.993H359.294L317.802 131.736H336.663Z" fill="url(#paint3_linear)"/>
<path d="M359.294 192C359.294 153.617 332.299 122.502 299 122.502C265.7 122.502 238.705 153.617 238.705 192H359.294Z" fill="url(#paint4_linear)"/>
<path d="M250.494 150.711C264.74 159.006 281.489 163.466 299 163.466C306.734 163.466 314.32 162.594 321.607 160.908C325.486 160.01 327.68 156.149 326.32 152.621C325.151 149.588 321.736 147.864 318.403 148.639C312.219 150.077 305.714 150.846 299 150.846C284.051 150.846 270.141 147.04 258.507 140.501C255.554 143.588 252.869 147.01 250.494 150.711V150.711Z" fill="#E05D6F"/>
<path d="M299 150.839C297.56 154.433 290.314 161.79 285.573 166.021C283.44 167.925 280.153 168.15 277.774 166.524C267.455 159.476 258.645 144.304 269.037 131.666L299 150.839Z" fill="url(#paint5_linear)"/>
<path d="M270.063 159.204C276.114 161.045 282.412 162.306 288.868 162.951C293.141 158.82 297.867 153.664 299 150.837C286.496 150.837 274.718 148.175 264.392 143.478C264.207 149.121 266.558 154.64 270.063 159.204V159.204Z" fill="#F2E07E"/>
<path d="M299 150.839C300.44 154.433 307.686 161.79 312.427 166.021C314.56 167.925 317.847 168.15 320.226 166.524C330.545 159.476 339.354 144.304 328.962 131.666L299 150.839Z" fill="url(#paint6_linear)"/>
<path d="M321.607 160.9C325.486 160.002 327.681 156.142 326.32 152.613C325.151 149.581 321.736 147.856 318.403 148.631C312.219 150.07 305.714 150.838 299 150.838C300.132 153.664 304.854 158.816 309.125 162.946C313.361 162.522 317.532 161.843 321.607 160.9Z" fill="#F2E07E"/>
<path d="M299 150.854C339.861 150.854 372.986 122.446 372.986 87.4032C372.986 52.3601 339.861 23.952 299 23.952C258.138 23.952 225.014 52.3601 225.014 87.4032C225.014 122.446 258.138 150.854 299 150.854Z" fill="#B38861"/>
<path d="M369.291 28.9215C367.987 28.4487 367.062 27.3633 366.846 26.0668C365.228 16.3778 356.303 8.96622 345.533 8.96622C341.478 8.96622 337.688 10.0214 334.449 11.8518C332.861 12.7491 330.835 12.3853 329.603 11.085C323.306 4.43798 311.96 0 299 0C286.04 0 274.694 4.43798 268.397 11.085C267.166 12.385 265.139 12.7491 263.551 11.8518C260.313 10.0214 256.523 8.96622 252.467 8.96622C241.698 8.96622 232.772 16.3778 231.154 26.0668C230.938 27.3633 230.013 28.4487 228.709 28.9215C219.686 32.1933 213.251 40.7159 213.251 50.7159C213.251 63.5434 223.838 73.9423 236.898 73.9423C249.416 73.9423 259.26 67.2184 262.637 57.9152C263.29 56.1169 265.329 55.1275 267.283 55.6209C277.449 58.1894 288.893 56.2198 296.53 50.304C297.97 49.1891 300.031 49.1891 301.471 50.304C309.104 56.2163 320.547 58.1909 330.718 55.6209C332.672 55.1271 334.711 56.1169 335.364 57.9152C338.741 67.2184 348.584 73.9423 361.103 73.9423C374.162 73.9423 384.749 63.5434 384.749 50.7159C384.749 40.7159 378.314 32.1933 369.291 28.9215Z" fill="url(#paint7_linear)"/>
<path d="M299 185.154C302.667 185.154 305.64 182.362 305.64 178.917C305.64 175.472 302.667 172.68 299 172.68C295.332 172.68 292.359 175.472 292.359 178.917C292.359 182.362 295.332 185.154 299 185.154Z" fill="url(#paint8_linear)"/>
<path d="M38.16 360.92C31.2 360.92 24.4 360.16 17.76 358.64C11.2 357.04 5.8 354.92 1.56 352.28L10.68 331.64C14.68 333.96 19.16 335.84 24.12 337.28C29.08 338.64 33.84 339.32 38.4 339.32C42.32 339.32 45.12 338.96 46.8 338.24C48.48 337.44 49.32 336.28 49.32 334.76C49.32 333 48.2 331.68 45.96 330.8C43.8 329.92 40.2 328.96 35.16 327.92C28.68 326.56 23.28 325.12 18.96 323.6C14.64 322 10.88 319.44 7.68 315.92C4.48 312.32 2.88 307.48 2.88 301.4C2.88 296.12 4.36 291.32 7.32 287C10.28 282.68 14.68 279.28 20.52 276.8C26.44 274.32 33.6 273.08 42 273.08C47.76 273.08 53.4 273.72 58.92 275C64.52 276.2 69.44 278 73.68 280.4L65.16 300.92C56.92 296.76 49.12 294.68 41.76 294.68C34.48 294.68 30.84 296.44 30.84 299.96C30.84 301.64 31.92 302.92 34.08 303.8C36.24 304.6 39.8 305.48 44.76 306.44C51.16 307.64 56.56 309.04 60.96 310.64C65.36 312.16 69.16 314.68 72.36 318.2C75.64 321.72 77.28 326.52 77.28 332.6C77.28 337.88 75.8 342.68 72.84 347C69.88 351.24 65.44 354.64 59.52 357.2C53.68 359.68 46.56 360.92 38.16 360.92ZM125.907 360.92C113.027 360.92 102.987 357.44 95.7872 350.48C88.5872 343.52 84.9872 333.76 84.9872 321.2V275H113.307V320.36C113.307 326.52 114.387 331 116.547 333.8C118.787 336.6 121.987 338 126.147 338C130.307 338 133.467 336.6 135.627 333.8C137.867 331 138.987 326.52 138.987 320.36V275H166.827V321.2C166.827 333.76 163.227 343.52 156.027 350.48C148.827 357.44 138.787 360.92 125.907 360.92ZM220.249 275C228.009 275 234.769 276.28 240.529 278.84C246.289 281.4 250.729 285.08 253.849 289.88C256.969 294.68 258.529 300.28 258.529 306.68C258.529 313.08 256.969 318.68 253.849 323.48C250.729 328.28 246.289 331.96 240.529 334.52C234.769 337.08 228.009 338.36 220.249 338.36H208.129V359H179.809V275H220.249ZM218.449 316.52C222.289 316.52 225.169 315.68 227.089 314C229.009 312.24 229.969 309.8 229.969 306.68C229.969 303.56 229.009 301.16 227.089 299.48C225.169 297.72 222.289 296.84 218.449 296.84H208.129V316.52H218.449ZM267.817 275H296.137V359H267.817V275ZM384.77 359L384.53 320.72L366.29 351.44H353.81L335.57 322.04V359H309.77V275H333.05L360.41 319.76L387.05 275H410.33L410.57 359H384.77ZM464.702 275C472.462 275 479.222 276.28 484.982 278.84C490.742 281.4 495.182 285.08 498.302 289.88C501.422 294.68 502.982 300.28 502.982 306.68C502.982 313.08 501.422 318.68 498.302 323.48C495.182 328.28 490.742 331.96 484.982 334.52C479.222 337.08 472.462 338.36 464.702 338.36H452.582V359H424.262V275H464.702ZM462.902 316.52C466.742 316.52 469.622 315.68 471.542 314C473.462 312.24 474.422 309.8 474.422 306.68C474.422 303.56 473.462 301.16 471.542 299.48C469.622 297.72 466.742 296.84 462.902 296.84H452.582V316.52H462.902ZM565.291 344.36H533.371L527.731 359H498.931L535.651 275H563.491L600.211 359H570.931L565.291 344.36ZM557.491 323.96L549.331 302.84L541.171 323.96H557.491Z" fill="#F3F3F3"/>
<defs>
<linearGradient id="paint0_linear" x1="221.486" y1="109.948" x2="221.486" y2="87.6451" gradientUnits="userSpaceOnUse">
<stop stop-color="#F9EDAF"/>
<stop offset="1" stop-color="#FFFCDD"/>
</linearGradient>
<linearGradient id="paint1_linear" x1="376.514" y1="109.948" x2="376.514" y2="87.6451" gradientUnits="userSpaceOnUse">
<stop stop-color="#F9EDAF"/>
<stop offset="1" stop-color="#FFFCDD"/>
</linearGradient>
<linearGradient id="paint2_linear" x1="260.247" y1="161.864" x2="224.807" y2="161.864" gradientUnits="userSpaceOnUse">
<stop stop-color="#EC6F80"/>
<stop offset="1" stop-color="#ECA0AA"/>
</linearGradient>
<linearGradient id="paint3_linear" x1="337.753" y1="161.864" x2="373.192" y2="161.864" gradientUnits="userSpaceOnUse">
<stop stop-color="#EC6F80"/>
<stop offset="1" stop-color="#ECA0AA"/>
</linearGradient>
<linearGradient id="paint4_linear" x1="299" y1="111.881" x2="299" y2="181.073" gradientUnits="userSpaceOnUse">
<stop stop-color="#EC6F80"/>
<stop offset="1" stop-color="#ECA0AA"/>
</linearGradient>
<linearGradient id="paint5_linear" x1="281.69" y1="149.205" x2="281.69" y2="159.795" gradientUnits="userSpaceOnUse">
<stop stop-color="#F9EDAF"/>
<stop offset="1" stop-color="#FFFCDD"/>
</linearGradient>
<linearGradient id="paint6_linear" x1="316.31" y1="149.205" x2="316.31" y2="159.795" gradientUnits="userSpaceOnUse">
<stop stop-color="#F9EDAF"/>
<stop offset="1" stop-color="#FFFCDD"/>
</linearGradient>
<linearGradient id="paint7_linear" x1="299" y1="97.5273" x2="299" y2="17.8843" gradientUnits="userSpaceOnUse">
<stop stop-color="#D4DBDB"/>
<stop offset="1" stop-color="#F3F3F3"/>
</linearGradient>
<linearGradient id="paint8_linear" x1="299" y1="185.293" x2="299" y2="173.235" gradientUnits="userSpaceOnUse">
<stop stop-color="#F9EDAF"/>
<stop offset="1" stop-color="#FFFCDD"/>
</linearGradient>
</defs>
</svg>
