<svg width="72" height="72" viewBox="0 0 72 72" fill="none" xmlns="http://www.w3.org/2000/svg">
<g clip-path="url(#clip0)">
<path d="M59.3799 7.65417H52.5957C52.253 7.65417 51.9752 7.93205 51.9752 8.27475V20.3218L60.0005 23.7048V8.27475C60.0003 7.93205 59.7226 7.65417 59.3799 7.65417V7.65417Z" fill="#8B818E"/>
<path d="M36.0001 4.66565L10.2134 33.0324V71.1371C10.2134 71.6137 10.5997 72 11.0763 72H60.924C61.4006 72 61.7869 71.6137 61.7869 71.1371V33.0324L36.0005 4.66565H36.0001Z" fill="#F1F1F4"/>
<path d="M36.0001 5.77014L34.5513 8.69444L51.5654 25.7085C54.3997 28.5428 55.992 32.3869 55.992 36.3952V56.4798C55.992 63.4511 50.3406 69.1026 43.3692 69.1026H10.2134V71.1371C10.2134 71.6137 10.5997 72 11.0763 72H60.924C61.4006 72 61.7869 71.6137 61.7869 71.1371V33.0324L36.0001 5.77014Z" fill="#DFDDE2"/>
<path d="M43.1054 55.5178H28.8948L27.6504 59.1388H44.3498L43.1054 55.5178Z" fill="#BE694F"/>
<path d="M26.1545 39.238L28.8969 49.4725L32.1155 47.3565L29.6326 38.0903L26.1545 39.238Z" fill="#BE694F"/>
<path d="M25.9017 62.5196C26.6704 62.8799 27.7088 62.0345 28.6436 62.2976L31.664 51.0255L29.982 50.2023L28.0909 51.0255L25.4118 61.0238C25.613 61.134 25.6597 62.4061 25.9017 62.5196Z" fill="#C67D66"/>
<path d="M46.0881 62.8417C46.3302 62.7282 46.3872 61.1341 46.5884 61.0238L43.9094 51.0255L41.8238 49.7421L40.3362 51.0255L43.3566 62.2976C44.2913 62.0345 45.3194 63.202 46.0881 62.8417Z" fill="#C67D66"/>
<path d="M29.6327 38.0904L26.5581 26.6155C26.3204 25.7288 25.4256 25.1874 24.5298 25.3884L23.199 25.6871C22.8515 25.7652 22.6388 26.1166 22.7311 26.4606L25.1662 35.5483L29.6327 38.0904Z" fill="#BE694F"/>
<path d="M38.1053 35.5483H24.7773C24.5689 35.5483 24.3998 35.7172 24.3998 35.9258V38.8606C24.3998 39.069 24.5687 39.2381 24.7773 39.2381H38.3524C38.8471 39.2381 39.2482 39.6391 39.2482 40.1338V49.1911L42.965 47.3566V40.4082C42.965 37.7242 40.7893 35.5483 38.1053 35.5483V35.5483Z" fill="#C67D66"/>
<path d="M45.2124 51.0255H26.7877C26.4956 51.0255 26.259 50.7887 26.259 50.4967V48.4C26.259 47.8237 26.7261 47.3566 27.3024 47.3566H44.6977C45.274 47.3566 45.7412 47.8237 45.7412 48.4V50.4967C45.7412 50.7888 45.5045 51.0255 45.2124 51.0255Z" fill="#D09080"/>
<path d="M36 67.1573C29.6581 67.1573 23.7946 65.3902 21.0619 62.6555C20.3018 61.8943 20.3035 60.6551 21.0657 59.8931C21.435 59.5238 21.9259 59.3204 22.4479 59.3204C22.9697 59.3204 23.4604 59.5238 23.8295 59.8928C24.1854 60.2484 24.8641 60.7918 26.076 61.3601C28.6338 62.559 32.251 63.2467 36 63.2467C39.7492 63.2467 43.3664 62.559 45.9242 61.3601C47.1361 60.7919 47.8148 60.2486 48.1707 59.8928C48.5399 59.5236 49.0305 59.3204 49.5522 59.3204C50.0744 59.3204 50.5653 59.5239 50.9346 59.8931C51.6969 60.6552 51.6986 61.8941 50.9384 62.6552C48.2056 65.3902 42.342 67.1573 36 67.1573Z" fill="#D09080"/>
<path d="M69.502 33.2058L36.5046 0.208551C36.2259 -0.070168 35.7742 -0.070168 35.4955 0.208551L2.49809 33.2059C2.40851 33.2955 2.40851 33.4408 2.49809 33.5303L5.94425 36.9765C6.03383 37.0661 6.17909 37.0661 6.26867 36.9765L35.4956 7.74985C35.7743 7.47113 36.226 7.47113 36.5047 7.74985L65.7314 36.9765C65.821 37.0661 65.9662 37.0661 66.0558 36.9765L69.502 33.5302C69.5916 33.4406 69.5916 33.2955 69.502 33.2058Z" fill="#4073C8"/>
</g>
<defs>
<clipPath id="clip0">
<rect width="72" height="72" fill="white"/>
</clipPath>
</defs>
</svg>
