<svg width="72" height="72" viewBox="0 0 72 72" fill="none" xmlns="http://www.w3.org/2000/svg">
<path d="M38.4828 64.5517H3.72414C1.66735 64.5517 0 62.8844 0 60.8276V3.72414C0 1.66735 1.66735 0 3.72414 0H48.4138C50.4706 0 52.1379 1.66735 52.1379 3.72414V34.8083L38.4828 64.5517Z" fill="#B0D3F0"/>
<path d="M44.6896 18.6206H7.44826C5.39147 18.6206 3.72412 20.288 3.72412 22.3447V57.1034C3.72412 59.1602 5.39147 60.8275 7.44826 60.8275H39.7241V58.3447H27.3103V50.8965H37.0154V48.4137H27.3103V40.9654H44.6896V38.4827H38.4827V31.0344H45.931V39.8296H48.4138V22.3447C48.4138 20.288 46.7464 18.6206 44.6896 18.6206ZM6.20688 38.4827V31.0344H13.6552V38.4827H6.20688ZM13.6552 40.9654V48.4137H6.20688V40.9654H13.6552ZM16.1379 31.0344H24.8276V38.4827H16.1379V31.0344ZM16.1379 28.5516V21.1034H24.8276V28.5516H16.1379ZM27.3103 21.1034H36V28.5516H27.3103V21.1034ZM7.44826 21.1034H13.6552V28.5516H6.20688V22.3447C6.20688 21.6591 6.76266 21.1034 7.44826 21.1034ZM6.20688 57.1034V50.8965H13.6552V58.3447H7.44826C6.76266 58.3447 6.20688 57.789 6.20688 57.1034ZM24.8276 58.3447H16.1379V50.8965H24.8276V58.3447ZM24.8276 48.4137H16.1379V40.9654H24.8276V48.4137ZM36 38.4827H27.3103V31.0344H36V38.4827ZM38.4827 28.5516V21.1034H44.6896C45.3752 21.1034 45.931 21.6591 45.931 22.3447V28.5516H38.4827Z" fill="#3B97D3"/>
<path d="M10.6758 9.27445C10.9976 8.7194 11.1687 8.08993 11.1724 7.44838C11.1724 5.3916 9.50505 3.72424 7.44826 3.72424H6.20688C4.83569 3.72424 3.72412 4.83581 3.72412 6.207V13.6553C3.72412 15.0265 4.83569 16.138 6.20688 16.138H8.68964C10.3476 16.1419 11.8076 15.0471 12.2685 13.4545C12.7294 11.8619 12.0796 10.1566 10.6758 9.27445V9.27445ZM6.20688 6.207H7.44826C8.13386 6.207 8.68964 6.76279 8.68964 7.44838C8.68964 8.13398 8.13386 8.68976 7.44826 8.68976H6.20688V6.207ZM8.68964 13.6553H6.20688V11.1725H8.68964C9.37524 11.1725 9.93102 11.7283 9.93102 12.4139C9.93102 13.0995 9.37524 13.6553 8.68964 13.6553Z" fill="#285680"/>
<path d="M16.1379 3.72424C15.4523 3.72424 14.8965 4.28003 14.8965 4.96562V14.8967C14.8965 15.5823 15.4523 16.138 16.1379 16.138C16.8235 16.138 17.3793 15.5823 17.3793 14.8967V4.96562C17.3793 4.28003 16.8235 3.72424 16.1379 3.72424Z" fill="#285680"/>
<path d="M26.069 3.72416C25.3834 3.72416 24.8276 4.27995 24.8276 4.96554V9.63809L22.2207 4.41065C21.9674 3.88744 21.3849 3.61008 20.8191 3.7432C20.2532 3.87632 19.8555 4.38428 19.8621 4.96554V14.8966C19.8621 15.5822 20.4179 16.138 21.1035 16.138C21.7891 16.138 22.3448 15.5822 22.3448 14.8966V10.224L24.9579 15.4515C25.215 15.9672 25.7931 16.2383 26.354 16.106C26.9148 15.9737 27.3109 15.4728 27.3104 14.8966V4.96554C27.3104 4.27995 26.7546 3.72416 26.069 3.72416V3.72416Z" fill="#285680"/>
<path d="M43.4483 3.72424C41.3915 3.72424 39.7241 5.3916 39.7241 7.44838V12.4139C39.7241 14.4707 41.3915 16.138 43.4483 16.138C45.505 16.138 47.1724 14.4707 47.1724 12.4139V7.44838C47.1724 5.3916 45.505 3.72424 43.4483 3.72424ZM44.6896 12.4139C44.6896 13.0995 44.1339 13.6553 43.4483 13.6553C42.7627 13.6553 42.2069 13.0995 42.2069 12.4139V7.44838C42.2069 6.76279 42.7627 6.207 43.4483 6.207C44.1339 6.207 44.6896 6.76279 44.6896 7.44838V12.4139Z" fill="#285680"/>
<path d="M36 8.68967H34.7586C34.073 8.68967 33.5172 9.24545 33.5172 9.93104C33.5172 10.6166 34.073 11.1724 34.7586 11.1724V12.4138C34.7586 13.0994 34.2028 13.6552 33.5172 13.6552C32.8316 13.6552 32.2758 13.0994 32.2758 12.4138V7.44829C32.2754 7.00457 32.5119 6.59436 32.896 6.37231C33.2802 6.15027 33.7536 6.15015 34.1379 6.37201C34.5227 6.61004 35.0065 6.6199 35.4006 6.39774C35.7947 6.17558 36.0368 5.75658 36.0323 5.30417C36.0279 4.85176 35.7777 4.43758 35.3793 4.22318C34.2271 3.55794 32.8074 3.55793 31.6552 4.22316C30.503 4.88839 29.7931 6.1178 29.7931 7.44829V12.4138C29.7931 14.4706 31.4604 16.1379 33.5172 16.1379C35.574 16.1379 37.2414 14.4706 37.2414 12.4138V9.93104C37.2414 9.24545 36.6856 8.68967 36 8.68967V8.68967Z" fill="#285680"/>
<g clip-path="url(#clip0)">
<path d="M47.4159 66.0606C46.7066 66.0606 46.1314 65.4855 46.1314 64.7761C46.1314 64.0668 46.7065 63.4916 47.4159 63.4916C53.0276 63.4916 56.7457 63.2469 58.783 62.7436C60.0961 62.4192 60.2496 62.1401 60.4441 61.787C61.3622 60.1192 62.6773 59.5994 68.6515 59.8103C69.3605 59.8353 69.9149 60.4302 69.8898 61.1392C69.8649 61.8482 69.2689 62.4043 68.561 62.3775C65.8886 62.2833 64.1593 62.3539 63.2732 62.5932C62.8731 62.7012 62.8597 62.7258 62.6945 63.0258C61.6854 64.8589 60.0768 66.0606 47.4159 66.0606Z" fill="#7EDEE6"/>
<path d="M47.6833 32.1129C47.6824 32.1129 47.6824 32.1129 47.6824 32.1129H44.2695L38.5063 33.1585L31.6879 39.2528L31.9984 42.2623L34.1877 45.8209H36.8814L51.0726 38.9669L54.1961 35.1646C52.2918 33.7278 50.0823 32.6725 47.6833 32.1129Z" fill="#CBFDFF"/>
<path d="M43.7152 31.6594C37.7401 31.6594 32.4676 34.668 29.3301 39.2528V41.886L31.9983 42.2622C32.4273 41.479 36.8568 33.8654 47.6825 32.1129C46.4079 31.8164 45.0799 31.6594 43.7152 31.6594Z" fill="#7EDEE6"/>
<path d="M54.197 35.1644H54.1962C42.4468 37.5266 37.4708 44.8445 36.8813 45.8208L40.0206 49.4294L43.8932 48.8707L53.09 46.2279L59.194 41.0825C57.9888 38.7536 56.2749 36.7327 54.197 35.1644Z" fill="#7EDEE6"/>
<path d="M59.194 44.7367L55.7811 41.7194C53.6163 42.3158 51.6585 43.2237 49.985 44.1929L50.1832 65.2548C53.4172 63.9619 56.1732 61.7251 58.1116 58.8858L58.1108 58.885L58.7914 54.6922L59.194 44.7367Z" fill="#77CCD9"/>
<path d="M49.9849 44.1929C46.2193 46.3743 43.8932 48.8707 43.8932 48.8707L40.5754 55.745L42.9924 66.481C43.2318 66.4916 43.473 66.4968 43.7152 66.4968C46.001 66.4968 48.1833 66.0565 50.1832 65.2548C54.4013 53.4511 50.2007 44.6332 49.9849 44.1929Z" fill="#CBFDFF"/>
<path d="M44.8212 56.458L34.8956 50.4355L26.4311 46.9138C26.3425 47.6226 26.2969 48.3445 26.2969 49.0778C26.2969 50.797 26.546 52.4574 27.01 54.0257L28.1754 56.1072L32.2266 60.4443L41.854 63.8282L44.2343 62.6375L44.1376 62.4741C44.1968 62.4739 44.2418 62.4732 44.2694 62.4725C44.3634 62.0214 44.4486 61.5681 44.5151 61.1121C44.721 59.7002 44.8238 58.277 44.8238 56.85C44.8238 56.7185 44.8229 56.5877 44.8212 56.458Z" fill="#7EDEE6"/>
<path d="M61.1342 49.0776C61.1342 52.7142 60.0185 56.0921 58.1116 58.8858L58.1108 58.8849C59.1502 49.8934 56.5346 43.371 55.7811 41.7193C56.8696 41.4176 58.0107 41.1948 59.194 41.0825H59.1948C60.4334 43.4772 61.1342 46.1953 61.1342 49.0776Z" fill="#CBFDFF"/>
<path d="M44.2695 62.4724C44.2581 62.5277 44.2459 62.5821 44.2345 62.6374C44.0875 63.3494 43.8895 64.0502 43.6625 64.7408C43.502 65.2291 43.3208 65.7091 43.1214 66.1828C43.0793 66.2827 43.0363 66.3819 42.9925 66.481C35.4096 66.1723 29.0766 61.0147 27.0101 54.0256C34.2201 62.5514 43.6275 62.4874 44.2695 62.4724Z" fill="#77CCD9"/>
<path d="M44.8212 56.4579C43.6467 56.4132 34.5271 55.7833 26.4311 46.9137C26.7793 44.0955 27.8011 41.4869 29.3301 39.2528C30.1239 40.365 31.0326 41.3658 31.9983 42.2623C33.5535 43.7078 35.2595 44.8832 36.8813 45.8209C40.6092 47.9761 43.8932 48.8707 43.8932 48.8707C43.8932 48.8707 43.9072 48.9224 43.9309 49.0207C43.9344 49.033 43.937 49.0452 43.9405 49.0593C44.4967 51.2874 44.7469 53.5918 44.8099 55.8848C44.811 55.9232 44.8191 56.4578 44.8212 56.4579Z" fill="#77CCD9"/>
</g>
<defs>
<clipPath id="clip0">
<rect width="43.5938" height="43.5938" fill="white" transform="translate(26.2969 27.2812)"/>
</clipPath>
</defs>
</svg>
