<svg width="72" height="72" viewBox="0 0 72 72" fill="none" xmlns="http://www.w3.org/2000/svg">
<path d="M46.3048 70.5939H4.48111C2.00626 70.5939 0 68.7705 0 66.5212V4.07273C0 1.82342 2.00626 0 4.48111 0H58.2544C60.7293 0 62.7355 1.82342 62.7355 4.07273V38.0664L46.3048 70.5939Z" fill="#B0D3F0"/>
<path d="M53.7733 20.3635H8.96216C6.48731 20.3635 4.48105 22.1869 4.48105 24.4363V62.4484C4.48105 64.6977 6.48731 66.5211 8.96216 66.5211H47.7984V63.8059H32.8614V55.6605H44.5392V52.9453H32.8614V44.7999H53.7733V42.0847H46.3047V33.9393H55.267V43.5577H58.2544V24.4363C58.2544 22.1869 56.2481 20.3635 53.7733 20.3635ZM7.46845 42.0847V33.9393H16.4307V42.0847H7.46845ZM16.4307 44.7999V52.9453H7.46845V44.7999H16.4307ZM19.4181 33.9393H29.874V42.0847H19.4181V33.9393ZM19.4181 31.2241V23.0787H29.874V31.2241H19.4181ZM32.8614 23.0787H43.3173V31.2241H32.8614V23.0787ZM8.96216 23.0787H16.4307V31.2241H7.46845V24.4363C7.46845 23.6865 8.13721 23.0787 8.96216 23.0787ZM7.46845 62.4484V55.6605H16.4307V63.8059H8.96216C8.13721 63.8059 7.46845 63.1981 7.46845 62.4484ZM29.874 63.8059H19.4181V55.6605H29.874V63.8059ZM29.874 52.9453H19.4181V44.7999H29.874V52.9453ZM43.3173 42.0847H32.8614V33.9393H43.3173V42.0847ZM46.3047 31.2241V23.0787H53.7733C54.5982 23.0787 55.267 23.6865 55.267 24.4363V31.2241H46.3047Z" fill="#3B97D3"/>
<path d="M12.8458 10.1419C13.2329 9.53485 13.4389 8.84647 13.4433 8.14487C13.4433 5.89556 11.437 4.07214 8.96216 4.07214H7.46846C5.81856 4.07214 4.48105 5.28776 4.48105 6.78729V14.9327C4.48105 16.4323 5.81856 17.6479 7.46846 17.6479H10.4559C12.4508 17.6521 14.2076 16.4549 14.7622 14.7132C15.3167 12.9715 14.5349 11.1066 12.8458 10.1419V10.1419ZM7.46846 6.78729H8.96216C9.78711 6.78729 10.4559 7.3951 10.4559 8.14487C10.4559 8.89464 9.78711 9.50244 8.96216 9.50244H7.46846V6.78729ZM10.4559 14.9327H7.46846V12.2176H10.4559C11.2808 12.2176 11.9496 12.8254 11.9496 13.5752C11.9496 14.3249 11.2808 14.9327 10.4559 14.9327Z" fill="#285680"/>
<path d="M19.4181 4.07288C18.5932 4.07288 17.9244 4.68068 17.9244 5.43045V16.2911C17.9244 17.0408 18.5932 17.6486 19.4181 17.6486C20.2431 17.6486 20.9118 17.0408 20.9118 16.2911V5.43045C20.9118 4.68068 20.2431 4.07288 19.4181 4.07288Z" fill="#285680"/>
<path d="M31.3677 4.07277C30.5428 4.07277 29.874 4.68058 29.874 5.43035V10.5403L26.7372 4.82351C26.4324 4.25133 25.7316 3.94801 25.0507 4.09359C24.3699 4.23918 23.8913 4.79468 23.8992 5.43035V16.2909C23.8992 17.0407 24.568 17.6485 25.3929 17.6485C26.2179 17.6485 26.8866 17.0407 26.8866 16.2909V11.181L30.0309 16.8978C30.3401 17.4618 31.0358 17.7582 31.7107 17.6135C32.3855 17.4689 32.8621 16.9211 32.8614 16.2909V5.43035C32.8614 4.68058 32.1927 4.07277 31.3677 4.07277V4.07277Z" fill="#285680"/>
<path d="M52.2797 4.07288C49.8048 4.07288 47.7986 5.8963 47.7986 8.1456V13.5759C47.7986 15.8252 49.8048 17.6486 52.2797 17.6486C54.7545 17.6486 56.7608 15.8252 56.7608 13.5759V8.1456C56.7608 5.8963 54.7545 4.07288 52.2797 4.07288ZM53.7734 13.5759C53.7734 14.3257 53.1046 14.9335 52.2797 14.9335C51.4547 14.9335 50.786 14.3257 50.786 13.5759V8.1456C50.786 7.39583 51.4547 6.78803 52.2797 6.78803C53.1046 6.78803 53.7734 7.39583 53.7734 8.1456V13.5759Z" fill="#285680"/>
<path d="M43.3173 9.50307H41.8236C40.9986 9.50307 40.3299 10.1109 40.3299 10.8606C40.3299 11.6104 40.9986 12.2182 41.8236 12.2182V13.5758C41.8236 14.3256 41.1548 14.9334 40.3299 14.9334C39.5049 14.9334 38.8362 14.3256 38.8362 13.5758V8.1455C38.8357 7.66025 39.1202 7.21164 39.5824 6.96881C40.0447 6.72598 40.6144 6.72585 41.0767 6.96848C41.5397 7.22879 42.1218 7.23957 42.5961 6.99662C43.0703 6.75366 43.3616 6.29545 43.3562 5.80069C43.3509 5.30593 43.0498 4.85299 42.5704 4.61852C41.184 3.891 39.4758 3.89099 38.0894 4.61849C36.7029 5.34599 35.8488 6.69047 35.8488 8.1455V13.5758C35.8488 15.8251 37.855 17.6485 40.3299 17.6485C42.8047 17.6485 44.811 15.8251 44.811 13.5758V10.8606C44.811 10.1109 44.1422 9.50307 43.3173 9.50307V9.50307Z" fill="#285680"/>
<path d="M53.4921 29.0007C53.4909 29.0007 53.4909 29.0007 53.4909 29.0007H48.7949L40.8649 30.3083L31.483 37.9296L31.9103 41.6932L34.9227 46.1434H38.6291L58.1556 37.5721L62.4534 32.817C59.8332 31.0202 56.793 29.7005 53.4921 29.0007Z" fill="#CBFDFF"/>
<path d="M48.0321 28.4337C39.8106 28.4337 32.5559 32.1961 28.2388 37.9297V41.2227L31.9102 41.6932C32.5004 40.7137 38.5953 31.1925 53.4909 29.0008C51.7372 28.6301 49.9099 28.4337 48.0321 28.4337Z" fill="#7EDEE6"/>
<path d="M62.4547 32.8168H62.4535C46.2869 35.7708 39.4402 44.9223 38.6291 46.1432L42.9486 50.656L48.2771 49.9573L60.9316 46.6523L69.3304 40.2177C67.6721 37.3052 65.3139 34.778 62.4547 32.8168Z" fill="#7EDEE6"/>
<path d="M69.3303 44.7876L64.6342 41.0143C61.6556 41.7602 58.9617 42.8955 56.6591 44.1076L56.9318 70.4468C61.3817 68.8299 65.1737 66.0327 67.841 62.482L67.8398 62.481L68.7764 57.2377L69.3303 44.7876Z" fill="#77CCD9"/>
<path d="M56.659 44.1077C51.4777 46.8357 48.277 49.9576 48.277 49.9576L43.7119 58.5544L47.0375 71.9803C47.367 71.9935 47.6989 72 48.032 72C51.1773 72 54.1801 71.4494 56.9318 70.4468C62.7358 55.6856 56.9559 44.6584 56.659 44.1077Z" fill="#CBFDFF"/>
<path d="M49.5538 59.4458L35.8967 51.9144L24.2499 47.5103C24.128 48.3966 24.0652 49.2994 24.0652 50.2164C24.0652 52.3664 24.408 54.4428 25.0464 56.4041L26.65 59.0072L32.2242 64.431L45.4711 68.6627L48.7464 67.1736L48.6133 66.9693C48.6948 66.9691 48.7567 66.9682 48.7947 66.9674C48.924 66.4032 49.0412 65.8364 49.1327 65.2661C49.4161 63.5003 49.5575 61.7206 49.5575 59.9361C49.5575 59.7716 49.5563 59.608 49.5538 59.4458Z" fill="#7EDEE6"/>
<path d="M72 50.2161C72 54.7639 70.4648 58.9882 67.841 62.4819L67.8399 62.4808C69.2701 51.2363 65.6711 43.0797 64.6343 41.0141C66.1321 40.6368 67.7022 40.3582 69.3303 40.2178H69.3315C71.0357 43.2125 72 46.6117 72 50.2161Z" fill="#CBFDFF"/>
<path d="M48.7948 66.9674C48.7791 67.0365 48.7623 67.1046 48.7466 67.1737C48.5444 68.0641 48.272 68.9406 47.9596 69.8041C47.7388 70.4147 47.4894 71.0151 47.215 71.6074C47.1571 71.7324 47.098 71.8564 47.0376 71.9804C36.604 71.5943 27.89 65.1444 25.0465 56.4042C34.9672 67.0662 47.9114 66.9861 48.7948 66.9674Z" fill="#77CCD9"/>
<path d="M49.5538 59.4456C47.9378 59.3897 35.3896 58.6021 24.2498 47.5101C24.729 43.9857 26.135 40.7236 28.2387 37.9297C29.3309 39.3206 30.5813 40.5721 31.9101 41.6932C34.0499 43.5009 36.3973 44.9708 38.6289 46.1435C43.7583 48.8387 48.2769 49.9574 48.2769 49.9574C48.2769 49.9574 48.2963 50.0222 48.3288 50.145C48.3336 50.1604 48.3373 50.1757 48.3421 50.1933C49.1073 52.9797 49.4515 55.8615 49.5382 58.7289C49.5397 58.777 49.5509 59.4455 49.5538 59.4456Z" fill="#77CCD9"/>
</svg>
