<svg width="72" height="72" viewBox="0 0 72 72" fill="none" xmlns="http://www.w3.org/2000/svg">
<path d="M39.6669 70.594H3.83874C1.71866 70.594 0 68.7706 0 66.5213V4.07273C0 1.82342 1.71866 0 3.83874 0H49.9036C52.0236 0 53.7423 1.82342 53.7423 4.07273V38.0665L39.6669 70.594Z" fill="#B0D3F0"/>
<path d="M46.0648 20.3635H7.67745C5.55738 20.3635 3.83871 22.187 3.83871 24.4363V62.4484C3.83871 64.6977 5.55738 66.5212 7.67745 66.5212H40.9465V63.806H28.1507V55.6605H38.1545V52.9454H28.1507V44.7999H46.0648V42.0848H39.6669V33.9393H47.3444V43.5577H49.9035V24.4363C49.9035 22.187 48.1849 20.3635 46.0648 20.3635ZM6.39787 42.0848V33.9393H14.0753V42.0848H6.39787ZM14.0753 44.7999V52.9454H6.39787V44.7999H14.0753ZM16.6345 33.9393H25.5916V42.0848H16.6345V33.9393ZM16.6345 31.2241V23.0787H25.5916V31.2241H16.6345ZM28.1507 23.0787H37.1078V31.2241H28.1507V23.0787ZM7.67745 23.0787H14.0753V31.2241H6.39787V24.4363C6.39787 23.6865 6.97076 23.0787 7.67745 23.0787ZM6.39787 62.4484V55.6605H14.0753V63.806H7.67745C6.97076 63.806 6.39787 63.1982 6.39787 62.4484ZM25.5916 63.806H16.6345V55.6605H25.5916V63.806ZM25.5916 52.9454H16.6345V44.7999H25.5916V52.9454ZM37.1078 42.0848H28.1507V33.9393H37.1078V42.0848ZM39.6669 31.2241V23.0787H46.0648C46.7715 23.0787 47.3444 23.6865 47.3444 24.4363V31.2241H39.6669Z" fill="#3B97D3"/>
<path d="M11.0044 10.1426C11.336 9.5356 11.5124 8.84721 11.5162 8.14561C11.5162 5.8963 9.79753 4.07288 7.67745 4.07288H6.39787C4.98449 4.07288 3.83871 5.28849 3.83871 6.78803V14.9335C3.83871 16.433 4.98449 17.6487 6.39787 17.6487H8.95703C10.666 17.6529 12.1709 16.4556 12.646 14.7139C13.1211 12.9722 12.4513 11.1073 11.0044 10.1426V10.1426ZM6.39787 6.78803H7.67745C8.38414 6.78803 8.95703 7.39584 8.95703 8.14561C8.95703 8.89538 8.38414 9.50319 7.67745 9.50319H6.39787V6.78803ZM8.95703 14.9335H6.39787V12.2183H8.95703C9.66372 12.2183 10.2366 12.8262 10.2366 13.5759C10.2366 14.3257 9.66372 14.9335 8.95703 14.9335Z" fill="#285680"/>
<path d="M16.6345 4.07288C15.9278 4.07288 15.3549 4.68068 15.3549 5.43045V16.2911C15.3549 17.0408 15.9278 17.6487 16.6345 17.6487C17.3412 17.6487 17.9141 17.0408 17.9141 16.2911V5.43045C17.9141 4.68068 17.3412 4.07288 16.6345 4.07288Z" fill="#285680"/>
<path d="M26.8711 4.07277C26.1644 4.07277 25.5915 4.68058 25.5915 5.43035V10.5403L22.9044 4.82351C22.6433 4.25133 22.0429 3.94801 21.4597 4.09359C20.8764 4.23918 20.4665 4.79468 20.4732 5.43035V16.291C20.4732 17.0407 21.0461 17.6485 21.7528 17.6485C22.4595 17.6485 23.0324 17.0407 23.0324 16.291V11.181L25.7259 16.8978C25.9908 17.4618 26.5868 17.7582 27.1649 17.6136C27.743 17.4689 28.1513 16.9211 28.1507 16.291V5.43035C28.1507 4.68058 27.5778 4.07277 26.8711 4.07277V4.07277Z" fill="#285680"/>
<path d="M44.7852 4.07288C42.6652 4.07288 40.9465 5.8963 40.9465 8.14561V13.5759C40.9465 15.8252 42.6652 17.6487 44.7852 17.6487C46.9053 17.6487 48.624 15.8252 48.624 13.5759V8.14561C48.624 5.8963 46.9053 4.07288 44.7852 4.07288ZM46.0648 13.5759C46.0648 14.3257 45.4919 14.9335 44.7852 14.9335C44.0785 14.9335 43.5057 14.3257 43.5057 13.5759V8.14561C43.5057 7.39584 44.0785 6.78803 44.7852 6.78803C45.4919 6.78803 46.0648 7.39584 46.0648 8.14561V13.5759Z" fill="#285680"/>
<path d="M37.1077 9.50308H35.8282C35.1215 9.50308 34.5486 10.1109 34.5486 10.8607C34.5486 11.6104 35.1215 12.2182 35.8282 12.2182V13.5758C35.8282 14.3256 35.2553 14.9334 34.5486 14.9334C33.8419 14.9334 33.269 14.3256 33.269 13.5758V8.14551C33.2685 7.66025 33.5123 7.21165 33.9082 6.96882C34.3042 6.72599 34.7923 6.72586 35.1884 6.96849C35.585 7.2288 36.0836 7.23958 36.4899 6.99662C36.8962 6.75367 37.1457 6.29545 37.1411 5.80069C37.1365 5.30593 36.8786 4.85299 36.4679 4.61852C35.2802 3.891 33.817 3.89099 32.6292 4.61849C31.4415 5.34599 30.7099 6.69048 30.7098 8.14551V13.5758C30.7098 15.8251 32.4285 17.6486 34.5486 17.6486C36.6686 17.6486 38.3873 15.8251 38.3873 13.5758V10.8607C38.3873 10.1109 37.8144 9.50308 37.1077 9.50308V9.50308Z" fill="#285680"/>
<path d="M45.5088 71.4545C44.6727 71.4545 43.9947 70.7353 43.9947 69.8481C43.9947 68.9611 44.6726 68.2418 45.5088 68.2418C52.1233 68.2418 56.5059 67.9358 58.9073 67.3063C60.4551 66.9006 60.6361 66.5517 60.8653 66.11C61.9475 64.0243 63.4976 63.3744 70.5394 63.6381C71.3751 63.6693 72.0286 64.4133 71.999 65.2999C71.9696 66.1866 71.2671 66.8821 70.4327 66.8485C67.2828 66.7307 65.2444 66.8191 64.1999 67.1183C63.7283 67.2534 63.7126 67.284 63.5179 67.6593C62.3284 69.9517 60.4323 71.4545 45.5088 71.4545Z" fill="#7EDEE6"/>
<path d="M45.8239 29.0009C45.8229 29.0009 45.8229 29.0009 45.8229 29.0009H41.8L35.0068 30.3084L26.9699 37.9298L27.3359 41.6933L29.9165 46.1436H33.0916L49.8189 37.5722L53.5006 32.8171C51.256 31.0203 48.6516 29.7006 45.8239 29.0009Z" fill="#CBFDFF"/>
<path d="M41.1466 28.4337C34.1037 28.4337 27.889 32.1961 24.1907 37.9297V41.2227L27.3358 41.6932C27.8414 40.7137 33.0626 31.1925 45.8229 29.0008C44.3206 28.6301 42.7553 28.4337 41.1466 28.4337Z" fill="#7EDEE6"/>
<path d="M53.5017 32.8169H53.5007C39.6515 35.7709 33.7863 44.9225 33.0915 46.1434L36.7918 50.6561L41.3565 49.9574L52.1969 46.6524L59.3917 40.2179C57.9711 37.3054 55.951 34.7781 53.5017 32.8169Z" fill="#7EDEE6"/>
<path d="M59.3917 44.7876L55.3688 41.0143C52.8172 41.7602 50.5095 42.8955 48.5369 44.1076L48.7705 70.4468C52.5825 68.83 55.831 66.0328 58.1159 62.4821L58.1149 62.481L58.9172 57.2377L59.3917 44.7876Z" fill="#77CCD9"/>
<path d="M48.5368 44.1075C44.0983 46.8356 41.3564 49.9574 41.3564 49.9574L37.4457 58.5543L40.2946 71.9803C40.5768 71.9935 40.8611 72 41.1466 72C43.8409 72 46.4133 71.4494 48.7705 70.4468C53.7425 55.6855 48.7912 44.6582 48.5368 44.1075Z" fill="#CBFDFF"/>
<path d="M42.4502 59.4458L30.7508 51.9144L20.7736 47.5103C20.6692 48.3966 20.6154 49.2994 20.6154 50.2164C20.6154 52.3664 20.9091 54.4428 21.456 56.4041L22.8297 59.0072L27.6048 64.431L38.9528 68.6627L41.7586 67.1737L41.6446 66.9693C41.7143 66.9691 41.7674 66.9683 41.7999 66.9674C41.9107 66.4033 42.0111 65.8364 42.0895 65.2661C42.3322 63.5004 42.4534 61.7206 42.4534 59.9361C42.4534 59.7716 42.4524 59.6081 42.4502 59.4458Z" fill="#7EDEE6"/>
<path d="M61.6787 50.2163C61.6787 54.7641 60.3635 58.9884 58.1159 62.482L58.1149 62.4809C59.3401 51.2364 56.257 43.0798 55.3688 41.0142C56.6519 40.6369 57.9969 40.3583 59.3916 40.2179H59.3927C60.8526 43.2126 61.6787 46.6118 61.6787 50.2163Z" fill="#CBFDFF"/>
<path d="M41.8 66.9673C41.7865 67.0364 41.7721 67.1045 41.7586 67.1736C41.5854 68.064 41.3521 68.9405 41.0845 69.804C40.8953 70.4146 40.6817 71.015 40.4466 71.6073C40.397 71.7323 40.3463 71.8564 40.2947 71.9803C31.3567 71.5942 23.8919 65.1443 21.456 56.4041C29.9545 67.0661 41.0431 66.986 41.8 66.9673Z" fill="#77CCD9"/>
<path d="M42.4502 59.4457C41.0658 59.3898 30.3164 58.6022 20.7736 47.5101C21.184 43.9857 22.3885 40.7236 24.1906 37.9297C25.1263 39.3206 26.1974 40.5721 27.3357 41.6933C29.1688 43.5009 31.1797 44.9709 33.0914 46.1435C37.4855 48.8387 41.3564 49.9574 41.3564 49.9574C41.3564 49.9574 41.3729 50.0222 41.4008 50.145C41.4049 50.1604 41.408 50.1757 41.4122 50.1933C42.0677 52.9797 42.3626 55.8615 42.4368 58.729C42.4381 58.777 42.4477 59.4456 42.4502 59.4457Z" fill="#77CCD9"/>
</svg>
